<svg xmlns="http://www.w3.org/2000/svg" width="155" height="17.005" viewBox="0 0 155 17.005"><g transform="translate(0 0)"><path d="M59.168,11.584a4.479,4.479,0,1,1-3.237-7.567A4.441,4.441,0,0,1,58.9,5.148c.234.2.663.624.663.624l2.73-2.925a8.505,8.505,0,1,0-6.358,14.158,8.232,8.232,0,0,0,6.553-3.12l-2.73-2.925C59.714,11,59.363,11.389,59.168,11.584Zm32.295,0a4.479,4.479,0,1,1-3.237-7.567A4.441,4.441,0,0,1,91.19,5.148c.234.2.663.624.663.624l2.73-2.925a8.505,8.505,0,1,0-6.358,14.158,8.232,8.232,0,0,0,6.553-3.12l-2.73-2.925A6.543,6.543,0,0,1,91.463,11.584ZM11.506,8.152A3.76,3.76,0,0,0,14,4.524V4.485a3.58,3.58,0,0,0-1.053-2.652A6.155,6.155,0,0,0,8.5.351H0v16.3H8.542c3.9,0,6.163-1.716,6.163-4.485V12.13C14.7,9.946,13.456,8.815,11.506,8.152ZM4.563,3.978H7.489c1.365,0,2.028.546,2.028,1.4v.039c0,.975-.741,1.4-2.145,1.4H4.524l.039-2.847Zm5.656,7.567c0,.975-.78,1.482-2.184,1.482H4.524v-3H7.957c1.521,0,2.223.624,2.262,1.521Z"/><path d="M47.463.9H42.9V17.2H54.8V13.3H47.463Z" transform="translate(-26.167 -0.549)"/><path d="M257.075,7.224h-5.812V1.1H246.7V17.442h4.563v-6.2h5.812v6.2H261.6V1.139h-4.524Z" transform="translate(-150.478 -0.671)"/><path d="M300.011.8h-4.368L288.7,17.259h4.758l1.17-2.925h6.28l1.17,2.925h4.836Zm-4.1,10.024,1.833-4.641,1.833,4.641Z" transform="translate(-176.097 -0.488)"/><rect width="4.524" height="16.342" transform="translate(132.261 0.468)"/><path d="M368.538,1.2V9.82L361.79,1.2H357.5V17.5h4.563V8.572l6.982,8.932h4.017V1.2Z" transform="translate(-218.062 -0.732)"/><path d="M181.123,1h-5.382l-5.617,6.631V1H165.6V17.342h4.524V13.13L171.8,11.3l4.563,6.046h5.382l-6.982-9.322Z" transform="translate(-101.01 -0.61)"/><path d="M83.3,0a8.5,8.5,0,1,0,8.5,8.5A8.5,8.5,0,0,0,83.3,0Zm0,12.988A4.485,4.485,0,1,1,87.788,8.5,4.511,4.511,0,0,1,83.3,12.988Z" transform="translate(-45.625 0)"/></g></svg>