<?xml version="1.0" encoding="UTF-8"?>
<svg width="1283px" height="380px" viewBox="0 0 1283 380" version="1.1" xmlns="http://www.w3.org/2000/svg" xmlns:xlink="http://www.w3.org/1999/xlink">
    <!-- Generator: Sketch 53.2 (72643) - https://sketchapp.com -->
    <title>Logo Web</title>
    <desc>Created with Sketch.</desc>
    <defs>
        <rect id="path-1" x="0" y="0" width="283" height="343"></rect>
        <polygon id="path-3" points="0 81.5518871 142 0 282 81.5518871 282 343 142 263.59653 0 343"></polygon>
        <polygon id="path-5" points="0 62.7050781 109 0.49609375 250 81 250 118.66596 109 37.1835938 0 100.339844"></polygon>
        <polygon id="path-7" points="1.43704493e-14 63.5273437 109 0.671875 218 63.5273437 218 101.886719 109 39.4101563 0 101.886719"></polygon>
        <polygon id="path-9" points="0.148925781 62.5117188 108.964844 0.715820313 250 80 250 117.225223 109 36.3007813 0 97.7402344"></polygon>
    </defs>
    <g id="Logo" stroke="none" stroke-width="1" fill="none" fill-rule="evenodd">
        <g id="Logo-Web" transform="translate(-138.000000, -320.000000)">
            <rect fill="#FFFFFF" x="0" y="0" width="1440" height="1024"></rect>
            <g id="Logo-with-Invisible-Mask" transform="translate(162.000000, 341.000000)">
                <g id="Logo-Assymetrical-Rectangle">
                    <g id="Logo">
                        <g id="Outer-Area-+-Bottom-rectangle-+-Center-rectangle-+-Top-rectangle-Mask">
                            <mask id="mask-2" fill="white">
                                <use xlink:href="#path-1"></use>
                            </mask>
                            <use id="Mask" fill="#FFFFFF" fill-rule="nonzero" xlink:href="#path-1"></use>
                            <g id="Outer-Area" mask="url(#mask-2)">
                                <mask id="mask-4" fill="white">
                                    <use xlink:href="#path-3"></use>
                                </mask>
                                <use id="Diamond-Frame" fill="#74858F" fill-rule="nonzero" xlink:href="#path-3"></use>
                                <polygon id="Edge-bottom" fill="#455660" fill-rule="nonzero" mask="url(#mask-4)" points="33 287.353027 66.6923828 309.553711 142 268 246.723633 328 282 305.089844 142 224.322266"></polygon>
                                <polygon id="Edge-top" fill="#455660" fill-rule="nonzero" mask="url(#mask-4)" points="1 80.9140625 143 -0.328125 283 80.9140625 252 100.566406 143 38.6269531 34 100.566406"></polygon>
                            </g>
                            <g id="Bottom-rectangle" mask="url(#mask-2)">
                                <g transform="translate(33.000000, 187.000000)">
                                    <mask id="mask-6" fill="white">
                                        <use xlink:href="#path-5"></use>
                                    </mask>
                                    <use id="Bottom-light-shape" stroke="none" fill="#FFFFFF" fill-rule="nonzero" xlink:href="#path-5"></use>
                                    <rect id="Bottom-light-shadow" stroke="none" fill-opacity="0.5" fill="#BCC7CD" fill-rule="nonzero" mask="url(#mask-6)" x="-33" y="-6" width="142" height="110"></rect>
                                </g>
                            </g>
                            <g id="Center-rectangle" mask="url(#mask-2)">
                                <g transform="translate(32.000000, 110.000000)">
                                    <polygon id="Center-dark" fill="#455660" fill-rule="nonzero" points="0.813476563 101.868164 110 39.3144531 219 101.699219 186.536133 120.966797 110 77.3730469 32 122.057617"></polygon>
                                    <g id="Center-light" stroke-width="1" fill="none" fill-rule="evenodd" transform="translate(1.000000, 0.000000)">
                                        <mask id="mask-8" fill="white">
                                            <use xlink:href="#path-7"></use>
                                        </mask>
                                        <use id="Center-light-shape" fill="#FFFFFF" fill-rule="nonzero" xlink:href="#path-7"></use>
                                        <rect id="Center-light-shadow" fill-opacity="0.5" fill="#BCC7CD" fill-rule="nonzero" mask="url(#mask-8)" x="-55" y="1" width="164" height="120"></rect>
                                    </g>
                                </g>
                            </g>
                            <g id="Top-rectangle" mask="url(#mask-2)">
                                <g transform="translate(32.000000, 38.000000)">
                                    <polygon id="Top-dark" fill="#455660" fill-rule="nonzero" points="0.904296875 97.8178711 32.097168 117.538574 110 72.78125 219 135.482422 250.10498 116.644043 110 36.046875"></polygon>
                                    <g id="Top-light" stroke-width="1" fill="none" fill-rule="evenodd" transform="translate(1.000000, 0.000000)">
                                        <mask id="mask-10" fill="white">
                                            <use xlink:href="#path-9"></use>
                                        </mask>
                                        <use id="Top-light-shape-" fill="#FFFFFF" fill-rule="nonzero" xlink:href="#path-9"></use>
                                        <rect id="Top-light-shadow" fill-opacity="0.5" fill="#BCC7CD" fill-rule="nonzero" mask="url(#mask-10)" x="0" y="-3" width="109" height="104"></rect>
                                    </g>
                                </g>
                            </g>
                        </g>
                    </g>
                </g>
            </g>
            <g id="Extropy.io-large" transform="translate(601.372000, 427.424000)" fill-rule="nonzero">
                <path d="M5.68434189e-14,166.576 L5.68434189e-14,1.392 L70.528,1.392 L70.528,23.664 L23.664,23.664 L23.664,72.152 L64.496,72.152 L64.496,94.424 L23.664,94.424 L23.664,142.912 L70.528,142.912 L70.528,166.576 L5.68434189e-14,166.576 Z M74.24,166.576 L107.648,80.04 L76.792,1.392 L101.848,1.392 L119.712,50.344 L137.808,1.392 L162.864,1.392 L131.312,80.04 L165.416,166.576 L140.36,166.576 L119.712,110.896 L99.296,166.576 L74.24,166.576 Z M191.632,166.576 L191.632,23.664 L164.256,23.664 L164.256,1.392 L242.672,1.392 L242.672,23.664 L215.296,23.664 L215.296,166.576 L191.632,166.576 Z M276.776,23.664 L276.776,75.168 L290.232,75.168 C294.408021,75.168 297.733321,74.5880058 300.208,73.428 C302.682679,72.2679942 304.615993,70.6053442 306.008,68.44 C307.24534,66.2746558 308.095998,63.6066825 308.56,60.436 C309.024002,57.2653175 309.256,53.5920209 309.256,49.416 C309.256,45.2399791 309.024002,41.5666825 308.56,38.396 C308.095998,35.2253175 307.168007,32.4800116 305.776,30.16 C302.837319,25.8293117 297.269374,23.664 289.072,23.664 L276.776,23.664 Z M253.112,166.576 L253.112,1.392 L291.16,1.392 C319.000139,1.392 332.92,17.554505 332.92,49.88 C332.92,59.6240487 331.412015,67.8986326 328.396,74.704 C325.379985,81.5093674 320.082705,86.9999791 312.504,91.176 L338.024,166.576 L312.968,166.576 L290.928,96.048 L276.776,96.048 L276.776,166.576 L253.112,166.576 Z M350.552,40.368 C350.552,33.7173001 351.711988,27.8400255 354.032,22.736 C356.352012,17.6319745 359.445314,13.3786837 363.312,9.976 C367.024019,6.72798376 371.238643,4.25334184 375.956,2.552 C380.673357,0.85065816 385.429309,3.41060513e-13 390.224,3.41060513e-13 C395.018691,3.41060513e-13 399.774643,0.85065816 404.492,2.552 C409.209357,4.25334184 413.501314,6.72798376 417.368,9.976 C421.080019,13.3786837 424.095988,17.6319745 426.416,22.736 C428.736012,27.8400255 429.896,33.7173001 429.896,40.368 L429.896,127.6 C429.896,134.560035 428.736012,140.514642 426.416,145.464 C424.095988,150.413358 421.080019,154.511984 417.368,157.76 C413.501314,161.162684 409.209357,163.714658 404.492,165.416 C399.774643,167.117342 395.018691,167.968 390.224,167.968 C385.429309,167.968 380.673357,167.117342 375.956,165.416 C371.238643,163.714658 367.024019,161.162684 363.312,157.76 C359.445314,154.511984 356.352012,150.413358 354.032,145.464 C351.711988,140.514642 350.552,134.560035 350.552,127.6 L350.552,40.368 Z M374.216,127.6 C374.216,133.322695 375.801317,137.53732 378.972,140.244 C382.142683,142.95068 385.893312,144.304 390.224,144.304 C394.554688,144.304 398.305317,142.95068 401.476,140.244 C404.646683,137.53732 406.232,133.322695 406.232,127.6 L406.232,40.368 C406.232,34.6453047 404.646683,30.4306802 401.476,27.724 C398.305317,25.0173198 394.554688,23.664 390.224,23.664 C385.893312,23.664 382.142683,25.0173198 378.972,27.724 C375.801317,30.4306802 374.216,34.6453047 374.216,40.368 L374.216,127.6 Z M450.776,166.576 L450.776,1.392 L486.272,1.392 C492.768032,1.392 498.490642,2.24265816 503.44,3.944 C508.389358,5.64534184 512.874647,8.66131168 516.896,12.992 C520.917353,17.3226883 523.701326,22.387971 525.248,28.188 C526.794674,33.988029 527.568,41.8372838 527.568,51.736 C527.568,59.1600371 527.142671,65.4239745 526.292,70.528 C525.441329,75.6320255 523.624014,80.4266442 520.84,84.912 C517.591984,90.3253604 513.26136,94.5399849 507.848,97.556 C502.43464,100.572015 495.320044,102.08 486.504,102.08 L474.44,102.08 L474.44,166.576 L450.776,166.576 Z M474.44,23.664 L474.44,79.808 L485.808,79.808 C490.602691,79.808 494.314654,79.112007 496.944,77.72 C499.573346,76.327993 501.50666,74.394679 502.744,71.92 C503.98134,69.5999884 504.715999,66.7386837 504.948,63.336 C505.180001,59.9333163 505.296,56.1440209 505.296,51.968 C505.296,48.101314 505.218667,44.4280174 505.064,40.948 C504.909333,37.4679826 504.21334,34.4133465 502.976,31.784 C501.73866,29.1546535 499.882679,27.144007 497.408,25.752 C494.933321,24.359993 491.376023,23.664 486.736,23.664 L474.44,23.664 Z M567.24,166.576 L567.24,96.744 L534.76,1.392 L559.816,1.392 L578.84,67.048 L579.304,67.048 L598.328,1.392 L623.384,1.392 L590.904,96.744 L590.904,166.576 L567.24,166.576 Z M633.824,166.576 L633.824,142.912 L657.488,142.912 L657.488,166.576 L633.824,166.576 Z" id="EXTROPY." fill="#455660"></path>
                <path d="M679.064,166.576 L679.064,1.392 L702.728,1.392 L702.728,166.576 L679.064,166.576 Z M724.304,40.368 C724.304,33.7173001 725.463988,27.8400255 727.784,22.736 C730.104012,17.6319745 733.197314,13.3786837 737.064,9.976 C740.776019,6.72798376 744.990643,4.25334184 749.708,2.552 C754.425357,0.85065816 759.181309,3.41060513e-13 763.976,3.41060513e-13 C768.770691,3.41060513e-13 773.526643,0.85065816 778.244,2.552 C782.961357,4.25334184 787.253314,6.72798376 791.12,9.976 C794.832019,13.3786837 797.847988,17.6319745 800.168,22.736 C802.488012,27.8400255 803.648,33.7173001 803.648,40.368 L803.648,127.6 C803.648,134.560035 802.488012,140.514642 800.168,145.464 C797.847988,150.413358 794.832019,154.511984 791.12,157.76 C787.253314,161.162684 782.961357,163.714658 778.244,165.416 C773.526643,167.117342 768.770691,167.968 763.976,167.968 C759.181309,167.968 754.425357,167.117342 749.708,165.416 C744.990643,163.714658 740.776019,161.162684 737.064,157.76 C733.197314,154.511984 730.104012,150.413358 727.784,145.464 C725.463988,140.514642 724.304,134.560035 724.304,127.6 L724.304,40.368 Z M747.968,127.6 C747.968,133.322695 749.553317,137.53732 752.724,140.244 C755.894683,142.95068 759.645312,144.304 763.976,144.304 C768.306688,144.304 772.057317,142.95068 775.228,140.244 C778.398683,137.53732 779.984,133.322695 779.984,127.6 L779.984,40.368 C779.984,34.6453047 778.398683,30.4306802 775.228,27.724 C772.057317,25.0173198 768.306688,23.664 763.976,23.664 C759.645312,23.664 755.894683,25.0173198 752.724,27.724 C749.553317,30.4306802 747.968,34.6453047 747.968,40.368 L747.968,127.6 Z" id="IO" fill="#74858F"></path>
            </g>
        </g>
    </g>
</svg>