<svg xmlns="http://www.w3.org/2000/svg" width="63" height="47.974" viewBox="0 0 63 47.974"><defs><style>.a{fill:#e2231a;}.b{fill:#fff;}</style></defs><g transform="translate(0 0)"><rect class="a" width="63" height="47.974"/><path class="b" d="M190.941,133.456a.16.16,0,0,0,.168-.117l.573-1.873c.051-.151,0-.235-.1-.235-.051,0-.085.016-.152.117-.1.132-.236.337-.337.337a.18.18,0,0,1-.152-.067,2.07,2.07,0,0,0-1.624-.688c-2.493,0-4.667,2.64-4.667,5.105a2.017,2.017,0,0,0,2.112,2.225,4.156,4.156,0,0,0,1.716-.405,1.476,1.476,0,0,1,.473-.132c.168,0,.185.219.2.506a.132.132,0,0,0,.111.151h.021a.172.172,0,0,0,.169-.085l.706-2.056c.067-.168-.016-.252-.118-.252s-.168.05-.252.185a3.722,3.722,0,0,1-2.915,1.617c-.825,0-1.2-.623-1.2-1.516,0-2.14,1.937-4.885,3.588-4.885A1.448,1.448,0,0,1,190.785,133c0,.084-.017.2-.017.286a.158.158,0,0,0,.148.168h.021Z" transform="translate(-160.272 -113.642)"/><path class="b" d="M238.438,144.85c-1.6,0-2.948,1.921-2.948,3.859,0,.859.438,1.567,1.263,1.567,1.617,0,2.965-2.09,2.965-3.859,0-.859-.438-1.567-1.281-1.567Zm.051.421c.387,0,.556.3.556.742,0,1.32-1.348,3.808-2.325,3.808-.388,0-.557-.264-.557-.708,0-1.432,1.348-3.842,2.326-3.842Z" transform="translate(-204.4 -125.727)"/><path class="b" d="M271.406,131.493a.447.447,0,0,1-.05.169c-.859,1.988-1.685,3.858-2.508,5.847a1.287,1.287,0,0,0-.118.437.316.316,0,0,0,.321.3,1.2,1.2,0,0,0,.4-.067,2.9,2.9,0,0,0,1.3-.894.213.213,0,0,0,.067-.151c0-.084-.034-.132-.1-.132a.214.214,0,0,0-.118.05,5.987,5.987,0,0,1-.759.539.406.406,0,0,1-.132.051.045.045,0,0,1-.05-.038.023.023,0,0,1,0-.013.414.414,0,0,1,.034-.132l2.662-6.15a.629.629,0,0,0,.067-.253c0-.066-.05-.1-.132-.1-.132,0-.387.017-.59.034-.168.016-.556.033-.808.066-.1.017-.169.085-.169.152a.132.132,0,0,0,.132.132h.022a3.551,3.551,0,0,1,.471.067.084.084,0,0,1,.067.083Z" transform="translate(-233.252 -113.67)"/><path class="b" d="M292.3,131.476a.448.448,0,0,1-.05.169c-.859,1.988-1.685,3.858-2.508,5.847a1.286,1.286,0,0,0-.117.437.318.318,0,0,0,.321.3,1.2,1.2,0,0,0,.4-.067,2.894,2.894,0,0,0,1.3-.894.213.213,0,0,0,.067-.151c0-.084-.034-.132-.1-.132a.214.214,0,0,0-.117.05,5.876,5.876,0,0,1-.758.539.473.473,0,0,1-.132.051.045.045,0,0,1-.05-.038.022.022,0,0,1,0-.013.414.414,0,0,1,.034-.132l2.65-6.152a.629.629,0,0,0,.067-.253c0-.066-.05-.1-.132-.1-.132,0-.387.017-.589.034-.169.016-.557.033-.809.066-.1.017-.169.085-.169.152a.132.132,0,0,0,.132.132h.021a3.554,3.554,0,0,1,.471.067.082.082,0,0,1,.067.083Z" transform="translate(-251.384 -113.653)"/><path class="b" d="M316.065,150.031a.291.291,0,0,0,.069-.168.15.15,0,0,0-.152-.152.207.207,0,0,0-.132.067,2.13,2.13,0,0,1-1.415.809c-.438,0-.692-.321-.692-.842a2.522,2.522,0,0,1,.253-.994,15.009,15.009,0,0,0,1.465-.338c1.23-.387,1.871-1.011,1.871-1.786,0-.528-.371-.758-.892-.758-1.517,0-3.59,2.09-3.59,4.111a1.106,1.106,0,0,0,1.146,1.18,2.528,2.528,0,0,0,2.071-1.13Zm-.673-2a7.243,7.243,0,0,1-1.2.3,5.619,5.619,0,0,1,1.056-1.5,1.5,1.5,0,0,1,.944-.54c.252,0,.388.152.388.438a1.5,1.5,0,0,1-1.2,1.3Z" transform="translate(-271.547 -126.612)"/><path class="b" d="M384.743,150.031a.3.3,0,0,0,.067-.168.15.15,0,0,0-.149-.152h0a.207.207,0,0,0-.132.067,2.127,2.127,0,0,1-1.415.809c-.438,0-.691-.321-.691-.842a2.55,2.55,0,0,1,.252-.994c.371-.067,1.1-.219,1.467-.338,1.229-.387,1.869-1.011,1.869-1.786,0-.528-.371-.758-.892-.758-1.517,0-3.59,2.09-3.59,4.111a1.1,1.1,0,0,0,1.146,1.18,2.531,2.531,0,0,0,2.073-1.13Zm-.675-2a7.185,7.185,0,0,1-1.2.3,5.617,5.617,0,0,1,1.056-1.5,1.5,1.5,0,0,1,.944-.54c.252,0,.387.152.387.438a1.5,1.5,0,0,1-1.2,1.3Z" transform="translate(-331.159 -126.612)"/><path class="b" d="M343.7,146.322a5.214,5.214,0,0,0-.05-.539c0-.117.132-.2.337-.2s.388.168.59.168a.312.312,0,0,0,.3-.318v-.018c0-.2-.152-.3-.388-.3a1.4,1.4,0,0,0-.741.235.5.5,0,0,1-.219.085.328.328,0,0,1-.152-.05,1.5,1.5,0,0,0-.844-.2,2.262,2.262,0,0,0-1.752.924,1.737,1.737,0,0,0-.4,1.112,1.507,1.507,0,0,0,.185.708c.017.033.067.085.067.118,0,.067-.1.1-.3.152-.354.084-.809.319-.809.758,0,.338.185.54.539.792-.64.169-1.7.59-1.7,1.32s.894,1.246,2.225,1.246c1.281,0,2.173-.539,2.173-1.381,0-.455-.42-.859-1.162-1.23s-1.281-.623-1.281-.91c0-.253.2-.371.573-.371.2,0,.471.067.675.067a2,2,0,0,0,1.937-1.263,2.2,2.2,0,0,0,.2-.894Zm-2.219,1.77c-.271,0-.405-.236-.405-.59a2.244,2.244,0,0,1,.338-1.056c.337-.607.775-.961,1.195-.961a.421.421,0,0,1,.438.473,2.5,2.5,0,0,1-.353,1.179c-.473.792-.861.961-1.213.961Zm-.826,3.829c-.91,0-1.432-.405-1.432-.842,0-.528.59-.894,1.18-1.1.252.132.623.3.91.471.471.286.556.438.556.692C341.868,151.6,341.4,151.921,340.655,151.921Z" transform="translate(-293.689 -125.952)"/><rect class="b" width="46.39" height="0.61" transform="translate(8.294 37.465)"/><rect class="b" width="46.39" height="1.187" transform="translate(8.294 39.636)"/><path class="b" d="M298,63.952c0-.694.508-.763.949-.792.085,0,.132-.086.132-.187a.148.148,0,0,0-.143-.153h-3.448c-.119,0-.2.067-.2.169a.2.2,0,0,0,.187.2h.016c.679.051,1.221.17,1.221.832v1.034a.66.66,0,0,1-.272.577,2.9,2.9,0,0,1-1.8.528c-2.136,0-3.1-1.781-3.1-3.595,0-2.441,1.542-3.747,3.239-3.747a3.229,3.229,0,0,1,3.153,1.848c.069.132.132.186.238.186a.173.173,0,0,0,.153-.186V58.831a.157.157,0,0,0-.139-.174h-.016c-.1,0-.152.067-.186.169-.051.2-.153.339-.3.339a.818.818,0,0,1-.356-.152,4.325,4.325,0,0,0-2.543-.713c-2.069,0-4.646,1.137-4.646,4.206,0,3.187,2.407,4.171,4.51,4.171A5.215,5.215,0,0,0,298,65.489Z" transform="translate(-251.826 -50.603)"/><path class="b" d="M361.508,59.659a.381.381,0,0,0,.355-.2.307.307,0,0,1,.034.132,1.01,1.01,0,0,1-.729.849.182.182,0,0,0-.119.169c0,.084.085.132.186.119a1.443,1.443,0,0,0,1.153-1.452c0-.576-.321-.882-.779-.882a.649.649,0,0,0-.713.66.586.586,0,0,0,.562.609A.3.3,0,0,0,361.508,59.659Z" transform="translate(-313.25 -50.681)"/><path class="b" d="M381.193,59.8a.132.132,0,0,0,.132-.132.125.125,0,0,0,0-.044l-.255-1.774c-.017-.119-.067-.153-.153-.153-.05,0-.1.034-.132.119-.052.132-.132.272-.3.272A6.634,6.634,0,0,0,379,57.784a2.184,2.184,0,0,0-2.441,2c0,1.526,1.221,2.069,2.272,2.441,1.153.408,2,.679,2,1.831s-.882,1.561-1.763,1.561a2.376,2.376,0,0,1-2.391-1.814c-.034-.119-.086-.186-.2-.186s-.187.067-.187.219V65.8a.165.165,0,0,0,.143.185h.028c.067,0,.117-.033.169-.118.052-.119.153-.306.322-.306a7.193,7.193,0,0,0,2.2.594c1.135,0,2.865-.424,2.865-2.475,0-.848-.339-1.95-2.408-2.544-1.452-.424-1.916-.949-1.916-1.678,0-.644.441-1.17,1.391-1.17a2.091,2.091,0,0,1,1.933,1.373c.05.1.1.132.169.132Z" transform="translate(-326.611 -50.082)"/><path class="b" d="M182.281,60.077c0-.644.186-.966.83-1.056.119-.016.186-.067.186-.169s-.067-.132-.186-.132h-2.984c-.119,0-.187.051-.187.132s.069.153.187.169c.644.084.83.407.83,1.056v5.562c0,.644-.186.966-.83,1.056-.119.017-.187.069-.187.17s.069.132.187.132h2.989c.119,0,.186-.051.186-.132s-.067-.153-.186-.17c-.644-.084-.83-.407-.83-1.056Z" transform="translate(-156.184 -50.968)"/><path class="b" d="M222.175,60.239c.033-.83.186-1.12.83-1.2.119-.016.186-.067.186-.169s-.067-.132-.186-.132h-2.56c-.069,0-.119.067-.119.153a.16.16,0,0,0,.132.152c.543.084.932.2,1,1.2.084,1.17.1,4.477.1,4.477l-5.338-5.99H214.1c-.119,0-.187.051-.187.132s.069.153.187.169c.355.051.83.22.83.78,0,1.678,0,3.883-.069,5.677-.033.832-.186,1.12-.83,1.2-.119.017-.186.069-.186.17s.067.132.186.132H216.6c.067,0,.117-.069.117-.153a.16.16,0,0,0-.132-.153c-.543-.084-.933-.2-1-1.2-.067-1.17-.1-5.442-.1-5.442l6.239,6.952h.4s0-4.969.069-6.766Z" transform="translate(-185.617 -50.976)"/><path class="b" d="M62.841,61.248c.017-.951.17-1.747,2.019-2,.186-.034.288-.119.288-.288a.236.236,0,0,0-.234-.239h-.021c-1.153.051-1.661.051-3.085.051-1.221,0-2.78-.051-3.018-.051-.2,0-.322.084-.322.238s.1.236.288.253c.66.1,1.679.255,1.747,2.17.017.594.034,3.528.034,6.715,0,2.052-.017,3.848-.051,4.68-.067,1.916-1.085,2.069-1.747,2.17-.186.017-.288.119-.288.253s.119.238.322.238c.238,0,1.8-.05,3.018-.05,1.425,0,2.136,0,3.29.05a.238.238,0,0,0,.253-.219V75.2c0-.169-.1-.253-.288-.288-1.848-.255-2.137-1.056-2.222-2-.033-.408-.067-1.442-.067-2.527s.017-2.136.034-2.357c.016-.255.152-.339.288-.339a.528.528,0,0,1,.322.119c1.153.966,4.7,5.188,6.715,7.63h4.307c.169,0,.238-.084.238-.22a.252.252,0,0,0-.23-.271h-.008a3.8,3.8,0,0,1-2.339-1.056c-1.056-.83-6.952-7.884-6.952-7.884.458-.528,3.169-3.289,4.73-4.7,1.831-1.662,2.544-1.883,3.323-2.069a.244.244,0,0,0,.2-.255c0-.152-.1-.264-.339-.264-.407,0-1.628.051-2.408.051-1.356,0-2.475-.051-2.713-.051-.2,0-.356.1-.356.264s.132.255.322.289a4.276,4.276,0,0,1,.78.186c.272.1.424.22.424.508a1.387,1.387,0,0,1-.264.747,12.082,12.082,0,0,1-1.475,1.815c-1.612,1.661-3.595,3.628-4.256,4.171a.264.264,0,0,1-.17.067c-.1,0-.132-.118-.132-.236s.016-3.223.05-5.29Z" transform="translate(-50.733 -50.968)"/><path class="b" d="M62.165,210.189a.12.12,0,0,0-.118.125v.007a.151.151,0,0,0,.152.132c.56.033.763.407.763.949v4.713c0,.543-.2.9-.763.949a.151.151,0,0,0-.152.132.123.123,0,0,0,.111.132h5.992l.372-2c.034-.132-.033-.22-.132-.22a.2.2,0,0,0-.186.132c-.528,1.452-1.357,1.628-2.6,1.628s-1.528-.184-1.528-.762V211.22c0-.576.491-.729.848-.746.1-.016.152-.067.152-.132a.156.156,0,0,0-.161-.153Z" transform="translate(-53.855 -182.44)"/><path class="b" d="M118.625,217.039a3.631,3.631,0,0,0,0-7.261,3.517,3.517,0,0,0-3.565,3.47v.1A3.483,3.483,0,0,0,118.625,217.039Zm-2.358-3.7c0-1.764.849-3.1,2.358-3.1,1.339,0,2.391,1.273,2.391,3.1,0,2.255-.951,3.238-2.391,3.238C117.217,216.581,116.267,215.22,116.267,213.342Z" transform="translate(-99.869 -182.082)"/><path class="b" d="M180.023,217.346l.034-5.934a.819.819,0,0,1,.763-.949c.1-.017.152-.069.152-.132a.123.123,0,0,0-.111-.132h-2.252a.132.132,0,0,0-.132.132c0,.067.051.119.153.132.56.1.83.271.848.949l.084,4.069-4.51-5.29H173.14a.132.132,0,0,0-.132.132c0,.084.051.132.153.152.474.069.694.222.694.679l-.033,4.968a.82.82,0,0,1-.763.949c-.1.017-.153.069-.153.132a.12.12,0,0,0,.119.132h2.238a.132.132,0,0,0,.132-.132c0-.067-.05-.119-.153-.132a.845.845,0,0,1-.848-.949l-.05-5,5.29,6.222Z" transform="translate(-150.078 -182.44)"/><path class="b" d="M238.5,210.086a.121.121,0,0,0-.119.124v.008a.132.132,0,0,0,.144.132h.009c.558.05.762.407.762.949v4.713c0,.543-.2.9-.762.949-.1.017-.153.069-.153.132a.123.123,0,0,0,.111.132h3.45c1.492,0,3.961-.763,3.961-3.645,0-2.561-1.967-3.51-4-3.51Zm1.933,1.153c0-.643.339-.694,1.237-.694a2.764,2.764,0,0,1,3.037,3.018c0,2.255-1.289,3.221-2.967,3.221h-.372c-.474,0-.932-.132-.932-1Z" transform="translate(-206.906 -182.336)"/><path class="b" d="M306.125,217.039a3.631,3.631,0,0,0,0-7.261,3.518,3.518,0,0,0-3.565,3.472v.092A3.483,3.483,0,0,0,306.125,217.039Zm-2.357-3.7c0-1.764.849-3.1,2.357-3.1,1.34,0,2.391,1.273,2.391,3.1,0,2.255-.949,3.239-2.391,3.239C304.717,216.581,303.768,215.22,303.768,213.343Z" transform="translate(-262.615 -182.082)"/><path class="b" d="M367.4,217.346l.034-5.934a.819.819,0,0,1,.763-.949c.1-.017.152-.069.152-.132a.123.123,0,0,0-.111-.132H366a.132.132,0,0,0-.132.132c0,.067.051.119.153.132.56.1.83.271.848.949l.084,4.069-4.511-5.29h-1.92a.132.132,0,0,0-.132.132c0,.084.05.132.153.152.474.069.694.222.694.679l-.034,4.968a.819.819,0,0,1-.763.949c-.1.017-.152.069-.152.132a.12.12,0,0,0,.119.132h2.238a.132.132,0,0,0,.132-.132c0-.067-.052-.119-.153-.132a.842.842,0,0,1-.848-.949l-.051-5,5.291,6.222Z" transform="translate(-312.72 -182.44)"/></g></svg>