<svg xmlns="http://www.w3.org/2000/svg" width="31.998" height="43.375" viewBox="0 0 31.998 43.375"><defs><style>.a{fill:#2c7df7;}</style></defs><path class="a" d="M20.721,43.441q-4.671,0-6.807-2.236a6.882,6.882,0,0,1-2.136-4.819,3.136,3.136,0,0,1,.372-1.59,2.733,2.733,0,0,1,1.019-1.019,3.135,3.135,0,0,1,1.59-.372,3.137,3.137,0,0,1,1.59.372A2.736,2.736,0,0,1,17.368,34.8a3.136,3.136,0,0,1,.372,1.59,3,3,0,0,1-.546,1.863,2.537,2.537,0,0,1-1.292.944,3.532,3.532,0,0,0,2.038,1.266,10.064,10.064,0,0,0,2.782.4,6.178,6.178,0,0,0,3.5-1.043,6.074,6.074,0,0,0,2.311-3.081,13.389,13.389,0,0,0,.745-4.621,12.567,12.567,0,0,0-.82-4.794A5.924,5.924,0,0,0,24.1,24.337a6.3,6.3,0,0,0-3.378-.968,6.517,6.517,0,0,0-2.981.994l-2.186,1.093V24.362l9.838-13.117H11.778V24.858a4.836,4.836,0,0,0,.745,2.783,2.576,2.576,0,0,0,2.286,1.093,3.83,3.83,0,0,0,2.285-.8A8.078,8.078,0,0,0,18.982,26a.731.731,0,0,1,.248-.324.5.5,0,0,1,.323-.124,1.159,1.159,0,0,1,.646.274,1.35,1.35,0,0,1,.348.918,6.326,6.326,0,0,1-.125.7,6.579,6.579,0,0,1-2.335,2.881,5.788,5.788,0,0,1-3.278.994q-4.423,0-6.112-1.738a6.49,6.49,0,0,1-1.689-4.72V11.245H.052V8.711H7.008V2.948L5.419,1.357V.066h4.621L11.777.96V8.711l17.987-.049,1.789,1.788L20.523,21.48a7.4,7.4,0,0,1,2.087-.5,9.012,9.012,0,0,1,4.024,1.143,8.315,8.315,0,0,1,3.478,3.08,11.04,11.04,0,0,1,1.565,3.727,15.8,15.8,0,0,1,.373,3.18,13.246,13.246,0,0,1-1.341,5.913A8.686,8.686,0,0,1,26.634,42.1a13.234,13.234,0,0,1-5.913,1.341Z" transform="translate(-0.052 -0.066)"/></svg>