<?xml version="1.0" encoding="utf-8"?>
<!-- Generator: Adobe Illustrator 19.0.0, SVG Export Plug-In . SVG Version: 6.00 Build 0)  -->
<svg version="1.1" id="Layer_1" xmlns="http://www.w3.org/2000/svg" xmlns:xlink="http://www.w3.org/1999/xlink" x="0px" y="0px"
	 viewBox="-218 253.3 107.3 153.1" style="enable-background:new -218 253.3 107.3 153.1;" xml:space="preserve">
<style type="text/css">
	.st0{fill:#F4E5BE;}
	.st1{fill:#007BFF;}
	.st2{fill:#FFC107;}
	.st3{fill:#EBF0F3;}
	.st4{fill:#F2E3C0;}
	.st5{fill:#23313A;}
	.st6{fill:#095191;}
</style>
<g>
	<path class="st0" d="M-177.5,300.9h26.3v35.7h-26.3V300.9z"/>
	<path class="st1" d="M-120.7,345.3c-2-2.2-4.4-4.1-7-5.5l-16.9-9.3l-2.8-1.5l-1.6,0.3c0,0,0,0,0,0l-15.3,3l-15.3-3c0,0,0,0,0,0
		l-1.6-0.3l-2.7,1.5l-17,9.3c-2.6,1.4-5,3.3-7,5.5c-4.5,5-7,11.4-7,18.2v41.5c0,0,0,0,0,0h101.3v-41.5
		C-113.7,356.7-116.2,350.2-120.7,345.3z"/>
	<path class="st2" d="M-157.3,338.5l-3.5-6.1l-3.5-0.1l-3.5,0.1l-3.5,6.1l3.4,6l-3.6,48.4l7.2,10.1l7.1-10.2l-3.5-48.3L-157.3,338.5
		z"/>
	<path class="st3" d="M-151.2,322.2l-13.1,10.1l10.9,14.1l6-17.4L-151.2,322.2z"/>
	<path class="st3" d="M-177.5,322.2l13.1,10.1l-10.9,14.1l-6-17.4L-177.5,322.2z"/>
	
		<ellipse transform="matrix(-0.9974 -7.202907e-002 7.202907e-002 -0.9974 -310.0969 578.7191)" class="st0" cx="-144.6" cy="295" rx="2.5" ry="5.2"/>
	
		<ellipse transform="matrix(-7.202907e-002 -0.9974 0.9974 -7.202907e-002 -491.4086 132.3473)" class="st0" cx="-184.1" cy="294.8" rx="5.2" ry="2.5"/>
	<path class="st4" d="M-145.1,300.3l-0.8-22.8l-2.7-7.4l-15.8-4.3l-15.8,4.3l-2.7,7.4l-0.8,22.8c0,0-0.9,5.6,1.2,9.6
		c2.1,4.1,4,5.9,6.7,8.6s6.2,3.5,11.4,3.7c5.2-0.2,8.7-1,11.4-3.7s4.6-4.6,6.7-8.6S-145.1,300.3-145.1,300.3z"/>
	<path class="st5" d="M-182.7,287c0-1,1.1-13.7,1.1-13.7l33.9,1.6l0.5,21.5h1.1c0,0,1.3-9,1.5-9.2c1.3-1.2,2.2-2.7,2.3-4.4
		c0.3-3.6,0.1-8.9-3-13.5c-5.2-7.6-18.4-7.8-30-7.9c0,0-6.9-2.9-7.4-6.4c0,0-6.6-2-6.2,11.7c0.4,13.8,3.9,21.8,3.9,21.8
		s0.8,2.3,1,5.2l1-0.3L-182.7,287z"/>
	<path class="st6" d="M-133.5,404.4c-0.8-8.8-0.1-45.1-1-44.8c-1,0.2-1.8,43.3,0,45.1C-134.3,404.9-133.5,404.8-133.5,404.4z"/>
	<path class="st6" d="M-194.3,404.4c0.8-8.8,0.1-45.1,1-44.8c1,0.2,1.8,43.3,0,45.1C-193.5,404.9-194.3,404.8-194.3,404.4z"/>
</g>
</svg>
