<svg xmlns="http://www.w3.org/2000/svg" width="341" height="120" viewBox="0 0 341 120"><g opacity=".5" fill="#6b7c93"><path d="M0 59.09h19.3v19.3H0zm5.03-11.96h9.24v9.24H5.03z"/><path d="M0 59.09h19.3v19.3H0zm5.03-11.96h9.24v9.24H5.03zm52.05 11.96h19.3v19.3h-19.3zm5.03-11.96h9.24v9.24h-9.24zm-37.43 4.24H51.7v27.02H24.68zm7.04-16.74h12.94v12.94H31.72z"/></g><path d="M108.1 78.89c-10.12 0-11.83-4.75-11.83-15.42 0-10.36 3.21-14.21 11.83-14.21 2.11 0 6.52.53 6.71.56h.43l-.17 2.71-.49-.06s-4.43-.47-6.48-.47c-6.69 0-8.84 2.79-8.84 11.5 0 9.38 1.34 12.72 8.84 12.72 2.06 0 6.55-.5 6.6-.5h.49l.17 2.7h-.45c-.19-.01-4.7.47-6.81.47zm16.15-.49h-2.88V49.76h2.88v3.88a29.73 29.73 0 0 1 10.41-4.43l.56-.11v2.84l-.38.07c-4.7.91-9.55 3.94-10.59 4.62zm24.91.49c-10.06 0-11.83-5-11.83-15.42s3.2-14.21 11.83-14.21c8 0 11.6 4.41 11.6 14.32 0 10.16-1.76 15.31-11.6 15.31zm0-26.92c-6.86 0-8.84 2.58-8.84 11.5 0 9.7 1.21 12.72 8.84 12.72s8.61-4 8.61-12.61c0-8.25-2.49-11.58-8.61-11.58zm45.9 26.43h-4.47l-7.31-23.71-7.35 23.71h-4.47l-7.73-28.64h3l7 25.78 8.15-25.23h2.84l8.1 25.23 7-25.78h3zm20.64.49c-2.95 0-9.84 0-9.84-14.43 0-10.8 3.51-15.2 12.11-15.2a51.4 51.4 0 0 1 6.84.59V38.68h2.88V78.4h-2.88v-2a20.43 20.43 0 0 1-9.11 2.49zM218 52c-7.72 0-9.23 4.64-9.23 12.66 0 11.56 4.87 11.56 7 11.56 4 0 8.12-2.14 9.11-2.69V52.58h-.41c-1.8-.26-4.71-.58-6.47-.58zm36.4-1.84l-.23 5.68s-4.53-.52-6.71-.52c-5.84 0-7.16 2.18-7.16 8.37 0 6.88 1.2 9.12 7.22 9.12 2.18 0 6.71-.52 6.71-.52l.17 5.71a71.51 71.51 0 0 1-8.88 1c-8.72 0-11.87-4.42-11.87-15.31 0-10.26 3.49-14.62 12-14.62a62.43 62.43 0 0 1 8.75 1.09zm28.38-.4v28.61h-6.53v-1.43S271.77 79 268.68 79c-8.26 0-9.92-4.24-9.92-14.28v-15h6.53v14.95c0 6.07.35 8.42 4.71 8.42a24.2 24.2 0 0 0 6.25-1.31v-22zm29.77 13.93c0 11.93-3.79 15.31-14 15.31-3 0-10.67-.75-10.67-.75V37.89h6.54v12.73a23.1 23.1 0 0 1 6.94-1.55c7.81 0 11.19 3.93 11.19 14.62zm-6.65 0c0-6.3-1.72-8.54-5.39-8.54a34.65 34.65 0 0 0-6.08.8v16.86s3 .28 4.07.28c6.14 0 7.4-2.63 7.4-9.4zm34.01 8.83l.12 5.1A68.4 68.4 0 0 1 328.39 79c-8.66 0-12-4.53-12-14.62 0-10.43 4.47-15.31 12.44-15.31 8.14 0 12.21 4.19 12.21 13.07l-.46 4.71h-17.6C323 71 324.72 73 329.36 73s10.55-.48 10.55-.48zm-5.39-10.78c0-5-1.66-6.82-5.73-6.82s-5.85 2.06-5.85 6.82z" fill="#6b7c93"/></svg>