<svg xmlns="http://www.w3.org/2000/svg" width="260" height="120" viewBox="0 0 260 120"><path d="M.17 86.84h2.06c6.37 0 7-3.16 7-9.91V32l6.5 6.46v40.27c0 7.14-2.44 12.8-9.07 14.15zM36 54.34a9.12 9.12 0 0 1 9.52 9.34c0 6-3.67 9.78-9.52 9.78-5.34 0-9-3.93-9-9.85 0-5.34 3.82-9.27 9-9.27zm.06 24.58c9.27 0 15.63-6.18 15.63-15.31 0-8.56-6.56-14.73-15.63-14.73-8.62 0-15.25 6.43-15.25 14.73.04 8.88 6.41 15.31 15.29 15.31zm39.15-18.53c0-4.12-2.06-6.75-5.34-6.75-2.38 0-4.31 1.09-6.89 4v20.7h-6V35.56h6v17.31a11.1 11.1 0 0 1 8.37-4.12c5.72 0 9.91 3.92 9.91 11.84v17.75h-6.05zm31.32.13c0-4.18-2.06-6.75-5.35-6.75-2.37 0-4.31 1.09-6.88 4v20.57h-6v-29h6V53a11.11 11.11 0 0 1 8.37-4.11c5.53 0 9.9 3.79 9.9 11.7v17.75h-6zm24-28.52l5.82 6v34.36h13l5.66 6h-24.48zm35.16 22.15c3.79 0 6.18 2.58 6.44 6.21h-13.9c.83-3.83 3.34-6.21 7.46-6.21zm11.87 21.2c-1-.83-3.76-3.64-3.76-3.64a15.4 15.4 0 0 1-6.37 1.42c-5.28 0-8.43-2.76-9.33-7.81h20c0-11.17-4.9-16.44-12.55-16.44-8 0-13.51 5.91-13.51 14.66 0 8 5 15.38 14 15.38a17.94 17.94 0 0 0 11.49-3.57zm33.53 3.57l-8.56-20.64L194 78.92h-1.81l-13-29.58h6.45l7.45 17.35 7.13-17.35h4.5L212 66.69l7.41-17.37h6.41l-12.92 29.6zm17.63-40.09a3.42 3.42 0 1 1 3.41 3.6 3.51 3.51 0 0 1-3.41-3.6zm.52 10.5h6v29h-6v-29zm11.2 26.89v-6.56c3.93 2.76 7.4 3.93 9.59 3.93s3.74-.82 3.82-2.71a3.78 3.78 0 0 0-2-2.9c-1.22-.9-2.89-1.73-4.57-2.76-3.28-1.93-6.69-4.44-6.69-8.43 0-4.95 3.51-7.91 9.53-7.91a17.6 17.6 0 0 1 8.49 2.44v6a16.62 16.62 0 0 0-8.61-3.18c-2.26 0-3.31 1-3.24 2.46s1.76 2.61 6.95 5.54c4.88 2.77 6.3 5.2 6.3 8.22 0 5.15-4.05 8.56-9.52 8.56a19.72 19.72 0 0 1-10-2.7z" fill="#6b7c93"/></svg>