<svg xmlns="http://www.w3.org/2000/svg" width="266" height="120" viewBox="0 0 266 120"><path d="M66 75.18a3.46 3.46 0 0 1-.85 1.71L51.56 90.5a1 1 0 1 1-1.7-.85V59.87L66 43.7z" fill="#6b7c93"/><path d="M55 32.64a.86.86 0 0 0-.86-.85.85.85 0 0 0-.85.85l-19.6 20.42V76l16.17-16.13L66 43.7z" fill="#6b7c93" opacity=".33"/><path d="M1.36 75.18a3.38 3.38 0 0 0 .85 1.71L15.82 90.5a1 1 0 0 0 1.28.43 1 1 0 0 0 .42-1.28V59.87L1.36 43.7z" fill="#6b7c93"/><path d="M14.12 32.64a.85.85 0 1 0-1.7 0L1.36 43.7l16.16 16.17L33.69 76V53z" fill="#6b7c93" opacity=".66"/><path d="M86.45 75.18V45.4h7.66v3.41a8.5 8.5 0 0 1 8.51-4.26 9.34 9.34 0 0 1 7.65 5.11c3.41-3.41 6-5.11 9.36-5.11 6.81 0 11.07 3.41 11.07 11.06v19.57h-8.51V59c0-4.26-.85-6-4.26-6s-5.1 1.7-5.1 6v16.18h-9.36V59c0-4.26-.85-6-3.41-6S95 54.76 95 59v16.18zm54.46-26.37a16.17 16.17 0 0 1 27.23 11.06A16 16 0 0 1 152 76a14.45 14.45 0 0 1-11.06-5.11 15.32 15.32 0 0 1-4.26-11.06 15.3 15.3 0 0 1 4.23-11.02zM152 67.53a7.66 7.66 0 0 0 7.66-7.66 7.24 7.24 0 0 0-14.47 0 7.67 7.67 0 0 0 6.81 7.66zm22.12 7.65V45.4h8.51v3.41c1.7-2.56 4.26-4.26 8.51-4.26 6 0 10.21 4.26 10.21 11.06v19.57h-8.51V59c0-4.26-.85-6-4.25-6s-6 1.7-6 6v16.18zm64.67-26.37A16.16 16.16 0 0 1 266 59.87 16 16 0 0 1 250.68 76a14.47 14.47 0 0 1-11.92-5.11 15.35 15.35 0 0 1-4.25-11.06 15.33 15.33 0 0 1 4.25-11.02zm11.92 18.72a7.65 7.65 0 0 0 6.8-7.66 7.23 7.23 0 0 0-14.46 0 7.66 7.66 0 0 0 7.63 7.66zm-42.55 7.65v-6L220 53.06h-11.87V45.4h22.12v6.81l-11.06 15.32h11.06v7.65z" fill="#6b7c93"/></svg>