<svg xmlns="http://www.w3.org/2000/svg" width="86.99" height="87" viewBox="0 0 86.99 87"><defs><style>.a{fill:#f7931a;}.b{fill:#fff;}</style></defs><g transform="translate(-0.004 0.001)"><path class="a" d="M85.693,54.023A43.485,43.485,0,1,1,54.016,1.3,43.491,43.491,0,0,1,85.693,54.023Z" transform="translate(0 0)"/><path class="b" d="M57.083,33.3c.865-5.788-3.543-8.9-9.569-10.976l1.955-7.841L44.7,13.29l-1.9,7.634c-1.253-.313-2.542-.608-3.823-.9l1.917-7.685-4.77-1.189L34.16,18.988c-1.039-.237-2.058-.47-3.048-.716l.005-.024L24.536,16.6l-1.27,5.1s3.541.812,3.466.862a2.539,2.539,0,0,1,2.224,2.776L26.73,34.272a3.952,3.952,0,0,1,.5.159l-.5-.125L23.6,46.819a1.737,1.737,0,0,1-2.187,1.134c.048.069-3.469-.866-3.469-.866l-2.369,5.465L21.787,54.1c1.155.29,2.288.593,3.4.878l-1.975,7.932L27.981,64.1l1.957-7.846c1.3.353,2.565.68,3.8.987l-1.949,7.81,4.773,1.189,1.975-7.916c8.139,1.54,14.26.919,16.833-6.441,2.076-5.927-.1-9.346-4.384-11.576,3.118-.722,5.467-2.773,6.094-7.01ZM46.177,48.587c-1.476,5.927-11.454,2.724-14.691,1.919L34.107,40c3.235.807,13.609,2.406,12.071,8.587ZM47.652,33.21C46.306,38.6,38,35.862,35.3,35.19l2.376-9.529C40.377,26.333,49.055,27.586,47.652,33.21Z" transform="translate(5.596 4.007)"/></g></svg>