<svg xmlns="http://www.w3.org/2000/svg" xmlns:xlink="http://www.w3.org/1999/xlink" width="90.667" height="51" viewBox="0 0 90.667 51"><defs><style>.a{fill:none;}.b{clip-path:url(#a);}.c{fill:#00e290;}.d{fill:#5700ff;}.e{clip-path:url(#b);}.f{clip-path:url(#c);}</style><clipPath id="a"><path class="a" d="M0,0H11.07V11.2H0Z"/></clipPath><clipPath id="b"><path class="a" d="M0,0H11.189V11.207H0Z"/></clipPath><clipPath id="c"><path class="a" d="M0,0H11.189V11.2H0Z"/></clipPath></defs><g transform="translate(259.933 286)"><g transform="translate(-259.933 -286)"><g transform="translate(0)"><g transform="translate(79.598 39.793)"><path class="a" d="M0,0H11.07V11.2H0Z" transform="translate(0 0)"/><g class="b" transform="translate(0 0)"><path class="c" d="M5.534,0A5.567,5.567,0,0,0,0,5.61H0A5.564,5.564,0,0,0,5.534,11.2,5.572,5.572,0,0,0,11.07,5.61,5.567,5.567,0,0,0,5.534,0" transform="translate(0)"/></g></g><path class="c" d="M8.415,10.464A5.61,5.61,0,1,0,.732,8.373l.033.051a5.595,5.595,0,0,0,7.65,2.04" transform="translate(74.386 19.71)"/><path class="d" d="M8.421.761a5.61,5.61,0,1,0,2.04,7.665V8.408A5.61,5.61,0,0,0,8.421.758" transform="translate(5.428 19.723)"/><path class="d" d="M5.605,11.22A5.609,5.609,0,1,0,2.841.732L2.747.788A5.61,5.61,0,0,0,5.605,11.22" transform="translate(19.704 5.439)"/><path class="d" d="M5.61,0a5.61,5.61,0,0,0,0,11.22h0A5.61,5.61,0,0,0,5.61,0" transform="translate(39.739)"/><path class="c" d="M2.611,10.347l.071.041A5.61,5.61,0,0,0,8.274.68a5.61,5.61,0,0,0-5.664,9.667" transform="translate(59.92 5.524)"/><g transform="translate(0 39.793)"><path class="a" d="M0,0H11.189V11.207H0Z" transform="translate(0 0)"/><g class="e" transform="translate(0 0)"><path class="d" d="M5.7,0A5.61,5.61,0,0,0,0,5.493c0,.036,0,.079,0,.115A5.595,5.595,0,1,0,5.7,0" transform="translate(0 0)"/></g></g><path class="c" d="M5.61,0A5.61,5.61,0,0,0,0,5.61H0A5.61,5.61,0,1,0,5.61,0" transform="translate(60.8 39.78)"/><path class="d" d="M8.6,10.352A5.61,5.61,0,0,0,3.023.642L2.99.662a5.61,5.61,0,1,0,5.61,9.69" transform="translate(29.013 21.523)"/><path class="c" d="M2.63,10.355A5.61,5.61,0,0,0,8.24.665L8.212.647A5.61,5.61,0,0,0,2.63,10.355" transform="translate(50.785 21.52)"/><g transform="translate(18.686 39.798)"><path class="a" d="M0,0H11.189V11.2H0Z" transform="translate(0 0)"/><g class="f" transform="translate(0 0)"><path class="d" d="M5.613,0a5.61,5.61,0,1,0,5.595,5.61h0A5.592,5.592,0,0,0,5.613,0" transform="translate(-0.019 0)"/></g></g></g></g></g></svg>