<svg xmlns="http://www.w3.org/2000/svg" width="63.626" height="16.1" viewBox="0 0 63.626 16.1"><defs><style>.a,.b,.c,.d,.e{fill-rule:evenodd;}.b{fill:#e01e5a;}.c{fill:#36c5f0;}.d{fill:#2eb67d;}.e{fill:#ecb22e;}</style></defs><g transform="translate(0)"><path class="a" d="M799.8,22.033l.794-1.845a5.3,5.3,0,0,0,3.128.975c.832,0,1.359-.321,1.359-.807-.013-1.359-4.986-.3-5.024-3.7-.013-1.731,1.524-3.064,3.7-3.064a5.7,5.7,0,0,1,3.512,1.051l-.743,1.883a5.594,5.594,0,0,0-2.9-.924c-.68,0-1.127.321-1.127.73.013,1.334,5.024.6,5.075,3.858,0,1.769-1.5,3.013-3.652,3.013a7.039,7.039,0,0,1-4.128-1.168m30.492-2.512a2.293,2.293,0,1,1,0-2.255l2.191-1.217a4.808,4.808,0,1,0,0,4.693ZM808.682,9.6h2.744V23.02h-2.744Zm24.878,0V23.02H836.3V18.994l3.255,4.026h3.512l-4.141-4.782,3.833-4.461H839.4l-3.1,3.7V9.6Z" transform="translate(-779.445 -9.356)"/><path d="M1307.437,172.16a2.526,2.526,0,0,1-2.14,1.14,2.293,2.293,0,0,1,0-4.586,2.527,2.527,0,0,1,2.14,1.178Zm0-5.767v1.089a3.231,3.231,0,0,0-2.731-1.283,4.837,4.837,0,0,0,0,9.615,3.231,3.231,0,0,0,2.731-1.283v1.089h2.744v-9.228Z" transform="translate(-1267.304 -161.97)"/><g transform="translate(0)"><path class="b" d="M3.885,335.092A1.692,1.692,0,1,1,2.192,333.4H3.885Zm.845,0a1.692,1.692,0,1,1,3.385,0v4.23a1.692,1.692,0,0,1-3.385,0Z" transform="translate(-0.487 -324.915)"/><path class="c" d="M5.935,3.385A1.692,1.692,0,1,1,7.628,1.692V3.385Zm0,.858a1.692,1.692,0,1,1,0,3.385H1.692a1.692,1.692,0,1,1,0-3.385Z" transform="translate(0)"/><path class="d" d="M337.63,5.935a1.692,1.692,0,1,1,1.692,1.692H337.63Zm-.845,0a1.692,1.692,0,0,1-3.385,0V1.692a1.692,1.692,0,0,1,3.385,0Z" transform="translate(-324.915 0)"/><path class="e" d="M335.092,337.63a1.692,1.692,0,1,1-1.692,1.692V337.63Zm0-.845a1.692,1.692,0,1,1,0-3.385h4.243a1.692,1.692,0,0,1,0,3.385Z" transform="translate(-324.915 -324.915)"/></g></g></svg>