<svg xmlns="http://www.w3.org/2000/svg" xmlns:xlink="http://www.w3.org/1999/xlink" width="349.011" height="466.795" viewBox="0 0 349.011 466.795"><defs><style>.a{fill:url(#a);}.b{fill:url(#b);}.c{fill:#8cc84b;}.d{fill:#d2d2d2;opacity:0.56;}.e{fill:#ffddcf;}.f{fill:#cfc1d4;}.g{fill:#eceded;}.h{fill:#e7511e;}.i{fill:#3e3d40;}.j{fill:#0070c0;}.k{fill:#fff;}.l{fill:#f8bfa8;}.m{fill:#d69174;}.n{fill:#1a171b;}.o{fill:#e281b5;}.p{fill:#b3b3b3;}.q{fill:#a6120d;}.r{fill:#dd1b16;}.s{fill:#f2f2f2;}.t{fill:#eab300;}.u{fill:#41b883;}.v{fill:#35495e;}</style><linearGradient id="a" x1="0.13" y1="0.12" x2="0.796" y2="0.782" gradientUnits="objectBoundingBox"><stop offset="0" stop-color="#387eb8"/><stop offset="1" stop-color="#366994"/></linearGradient><linearGradient id="b" x1="0.191" y1="0.206" x2="0.907" y2="0.884" gradientUnits="objectBoundingBox"><stop offset="0" stop-color="#ffe052"/><stop offset="1" stop-color="#ffc331"/></linearGradient></defs><g transform="translate(-8728.281 -3071.795)"><g transform="translate(9013.095 3148.11) rotate(17)"><path class="a" d="M28.525,0C13.937,0,14.848,6.326,14.848,6.326l.016,6.554H28.785v1.968H9.335S0,13.789,0,28.508s8.148,14.2,8.148,14.2H13.01v-6.83s-.262-8.148,8.018-8.148H34.835s7.757.125,7.757-7.5V7.627S43.77,0,28.525,0ZM20.849,4.408a2.5,2.5,0,1,1-1.772.733A2.5,2.5,0,0,1,20.849,4.408Z"/><path class="b" d="M14.089,42.708c14.588,0,13.677-6.326,13.677-6.326l-.016-6.554H13.828V27.86h19.45s9.335,1.059,9.335-13.661S34.465,0,34.465,0H29.6v6.83s.262,8.148-8.018,8.148H7.778s-7.757-.125-7.757,7.5v12.6s-1.178,7.627,14.067,7.627ZM21.765,38.3a2.5,2.5,0,1,1,1.772-.733,2.5,2.5,0,0,1-1.772.733Z" transform="translate(14.851 14.457)"/></g><g transform="matrix(0.995, 0.105, -0.105, 0.995, 8734.38, 3171.659)"><path class="c" d="M24.085.622a4.893,4.893,0,0,1,4.777,0Q39.769,6.786,50.679,12.946a4.491,4.491,0,0,1,2.268,3.868V41.536a4.54,4.54,0,0,1-2.438,3.952q-10.872,6.13-21.74,12.264a4.754,4.754,0,0,1-4.829-.134q-3.26-1.89-6.523-3.772a3.841,3.841,0,0,1-1.258-.906c.277-.374.773-.42,1.176-.583a15.224,15.224,0,0,0,2.573-1.2.6.6,0,0,1,.67.04c1.858,1.065,3.7,2.162,5.564,3.217.4.23.8-.075,1.14-.265Q37.952,48.119,48.628,42.1a.706.706,0,0,0,.388-.7q.007-12.233,0-24.467a.765.765,0,0,0-.456-.763Q37.729,10.076,26.9,3.967a.752.752,0,0,0-.851,0Q15.215,10.071,4.386,16.182a.756.756,0,0,0-.458.759q0,12.233,0,24.468a.692.692,0,0,0,.393.686q2.891,1.639,5.785,3.267a4.47,4.47,0,0,0,3.617.484A2.744,2.744,0,0,0,15.5,43.269c.01-8.108,0-16.217.007-24.323a.611.611,0,0,1,.665-.623c.926-.006,1.853-.012,2.779,0a.641.641,0,0,1,.6.741c0,8.159.01,16.318-.006,24.477a6.206,6.206,0,0,1-2.9,5.6,8.938,8.938,0,0,1-7.988-.219c-2.119-1.058-4.142-2.306-6.223-3.439A4.529,4.529,0,0,1,0,41.536V16.814A4.5,4.5,0,0,1,2.346,12.9Q13.217,6.762,24.085.622Z" transform="translate(0 0)"/><path class="c" d="M8.759.081c3.161-.2,6.544-.121,9.389,1.437a7.1,7.1,0,0,1,3.462,6.144.665.665,0,0,1-.722.489c-.917,0-1.834.012-2.751-.006a.709.709,0,0,1-.664-.688,4.188,4.188,0,0,0-2-2.895,11.877,11.877,0,0,0-5.5-.787,7.462,7.462,0,0,0-3.935.98,2.493,2.493,0,0,0-.829,2.785c.295.7,1.1.926,1.764,1.134,3.809,1,7.845.9,11.582,2.208a5.453,5.453,0,0,1,3.59,3.193,6.822,6.822,0,0,1-1.155,6.508,9.119,9.119,0,0,1-4.9,2.638,23.522,23.522,0,0,1-7.39.314,11.645,11.645,0,0,1-6.5-2.445,6.822,6.822,0,0,1-2.2-5.381.616.616,0,0,1,.675-.543c.923-.007,1.847-.01,2.77,0a.647.647,0,0,1,.661.64,4.2,4.2,0,0,0,1.562,2.947c1.877,1.211,4.232,1.128,6.381,1.162,1.78-.079,3.779-.1,5.232-1.28a2.89,2.89,0,0,0,.787-2.76c-.224-.816-1.078-1.2-1.81-1.444-3.76-1.189-7.842-.758-11.566-2.1a5.629,5.629,0,0,1-3.554-3.1,6.344,6.344,0,0,1,1.267-6.6A10.227,10.227,0,0,1,8.759.08Z" transform="translate(21.648 17.667)"/></g><ellipse class="d" cx="93.168" cy="4.14" rx="93.168" ry="4.14" transform="translate(8797.967 3530.309)"/><g transform="translate(8879.183 3297.057)"><path class="e" d="M806.133,600.794l-2.26,9.043v20.346h31.65V609.837l-2.261-9.043Z" transform="translate(-803.872 -600.794)"/><path class="f" d="M806.7,600.794l-1.067,4.268c7.708,9.3,23.321,8.872,30.456,4.775l-2.26-9.043Z" transform="translate(-804.437 -600.794)"/></g><g transform="translate(8895.005 3428.742)"><path class="g" d="M843,794.725c-4.521,3.744-9.066,4.286-11.3,3.957-2.878-.424-4.522,2.26-4.522,4.521v28.259c0,5.692,1.913,5.8,4.522,3.957,2.26-1.6,3.337-6.072,3.956-10.739.594-4.482,5.087-12.434,11.869-16.955Z" transform="translate(-827.177 -794.725)"/><path class="f" d="M844.633,814.109c-2.717-3.337-4.084-9.68-4.7-14.621h0a13.894,13.894,0,0,1-4.3.8c-.171,2.026-.362,4.192-.4,4.266-.052.1,4.412,8.5,6.786,12.944A32.608,32.608,0,0,1,844.633,814.109Z" transform="translate(-829.765 -796.253)"/><path class="h" d="M831.7,800.21c-2.878-.424-4.522,2.261-4.522,4.521V832.99c0,5.692,1.913,5.8,4.522,3.957,2.26-1.6,3.337-6.072,3.956-10.739.384-2.9,2.408-7.248,5.62-11.183v-.011s-3.829-4.19-3.923-15.525h0A12.5,12.5,0,0,1,831.7,800.21Z" transform="translate(-827.177 -796.253)"/><path class="f" d="M831.7,800.436c-2.878-.424-4.522,2.26-4.522,4.521v28.259c0,4.769,1.343,5.62,3.314,4.684h0c-4.036-.827-2.11-10.9-.839-16.764s-.282-12.363-.53-16.072,3.919-3.744,6.549-4.871A11.259,11.259,0,0,1,831.7,800.436Z" transform="translate(-827.177 -796.48)"/></g><g transform="translate(8871.356 3515.711)"><path class="g" d="M800.173,923.436s0,5.652-4.521,8.478c-4.287,2.68-4.522,9.608,0,9.608H816c2.261,0,4.522,0,4.522-4.522s-2.261-6.782-2.261-11.3C818.259,925.7,816,921.175,800.173,923.436Z" transform="translate(-792.349 -922.803)"/><path class="f" d="M796.959,933.547h0a8.658,8.658,0,0,1-1.3,1c-4.287,2.68-4.522,9.608,0,9.608H816c2.261,0,4.522,0,4.522-4.522a14.382,14.382,0,0,0-.716-4.375h0C812.516,928.174,800.621,931.65,796.959,933.547Z" transform="translate(-792.349 -925.435)"/><path class="h" d="M795.652,944.862H816c2.261,0,4.522,0,4.522-4.522a13.317,13.317,0,0,0-.375-3.125c-2.125-5.565-20.49-4.363-24.176-2.17h0c-.1.071-.206.141-.314.209C791.366,937.933,791.131,944.862,795.652,944.862Z" transform="translate(-792.349 -926.143)"/><path class="f" d="M818.613,942.288c-3.243,2.972-12.469,2.049-18.792,1.907s-6.393-2.578-4.774-7.34c-3.69,2.921-3.691,9.177.606,9.177H816c2.261,0,4.522,0,4.522-4.522a13.308,13.308,0,0,0-.376-3.125A5.253,5.253,0,0,1,818.613,942.288Z" transform="translate(-792.349 -927.313)"/></g><g transform="translate(8953.784 3337.75)"><path class="e" d="M927.3,660.721s24.83,22.055,54.257,20.346c10.95-.636,17.336-7.327,20.346-6.782,1.49.27-3.264,6.914-3.264,6.914a57.146,57.146,0,0,0,20.784.574c2.212-.469.566,6.076-3.956,8.336s-18.085,6.782-29.389,0c-25.715,7.347-45.779,4.1-58.777-2.26-11.842-5.79-13.564-9.043-13.564-9.043Z" transform="translate(-913.739 -660.721)"/><path class="f" d="M1020.371,684.012c-2.931,5.319-6.992,6.076-12.53,7.812-5.558,1.743-21.1,1.084-21.712-5.228-2.167,8.354-41.941,10.149-58.59-.235-3.633-2.267-5.152-3.927-3.205-7.543a82.324,82.324,0,0,0,5.824-15.159l-3.856-.973-12.563,16.751s1.722,3.253,13.564,9.043c13,6.356,33.063,9.608,58.777,2.26,11.3,6.782,24.868,2.26,29.389,0A9.671,9.671,0,0,0,1020.371,684.012Z" transform="translate(-913.739 -661.352)"/></g><g transform="translate(8736.647 3250.344)"><path class="e" d="M682.715,587.594c-12.354-4.353-37.95-24.042-48.552-37.063-5.461-6.708-2.315-9.153-10.086-14.182-6.443-4.169-7.99-5.637-7.767-3.1.3,3.39,4.823,8.224,2.842,8.063s-16.418-1.942-22.588-5.343.023,8.573,4.3,11.152,21.61,9.6,24.632,10.12c7.153,13.279,37.979,49.219,46.325,53.345s14.01,4.989,14.01,4.989Z" transform="translate(-593.964 -532)"/><path class="f" d="M603.773,554.041c.08.054.16.11.238.158,4.275,2.579,21.61,9.6,24.632,10.12,7.153,13.279,37.979,49.219,46.326,53.345s14.01,4.99,14.01,4.99l-3.115-27.984a42.373,42.373,0,0,1-5.153-2.285h0c-1.712,8.434-.979,17.908-1.632,22.134-.654,4.241-13.093-5.84-28.07-22.823s-21.053-27.289-19.922-30.492C627.462,563.65,609.774,557.034,603.773,554.041Z" transform="translate(-597.112 -539.075)"/></g><g transform="translate(8865.618 3394.267)"><path class="i" d="M783.9,753c0,15.825,9.043,38.432,11.3,58.778,2.247,20.222-2.261,58.778-2.261,58.778a49.285,49.285,0,0,1,13.564-2.26,27.435,27.435,0,0,1,11.3,2.26s-4.522-38.432-4.522-61.039,2.261-42.953,2.261-42.953a104.034,104.034,0,0,0,29.388,4.521c-4.521,4.522-20.346,6.782-20.346,6.782s9.043,11.3,11.3,22.607c9.043-11.3,24.868-18.085,38.432-20.346s15.825-15.825,6.782-20.346-18.085-2.261-40.692-15.825C815.547,743.954,783.9,753,783.9,753Z" transform="translate(-783.897 -743.954)"/></g><g transform="translate(8820.153 3301.013)"><path class="j" d="M757.884,647.878s6.782,15.825,6.782,29.389c0,11.3-4.522,38.432-4.522,38.432a171.449,171.449,0,0,1,31.649-11.3c18.086-4.521,31.65-2.26,31.65-2.26s-4.521-9.043-4.521-24.867c0-13.564,6.782-29.389,6.782-29.389,9.043,15.825,24.867,22.607,24.867,22.607s11.3-9.043,18.085-29.389a78.07,78.07,0,0,1-18.085-13.564c-9.043-9.043-8.619-12.575-20.346-13.564l-22.607-2.26s-2.26,13.564-15.825,13.564-15.825-13.564-15.825-13.564l-22.607,2.26c-11.868,1.319-25.9-1.884-36.171-7.347,0,0-2.261,25.433,6.782,39C723.974,645.617,739.8,654.66,757.884,647.878Z" transform="translate(-716.941 -606.62)"/><g transform="translate(57.899 37.866)"><path class="k" d="M812.711,689.818a.951.951,0,0,1-.491-.136l-9.548-5.73a.955.955,0,0,1,0-1.638l9.548-5.73a.955.955,0,1,1,.983,1.638l-8.184,4.911,8.184,4.911a.955.955,0,0,1-.492,1.774Z" transform="translate(-802.208 -666.899)"/><path class="k" d="M836.915,689.818a.955.955,0,0,1-.492-1.774l8.184-4.911-8.184-4.911a.955.955,0,1,1,.982-1.638l9.549,5.73a.955.955,0,0,1,0,1.638l-9.549,5.73A.951.951,0,0,1,836.915,689.818Z" transform="translate(-813.041 -666.899)"/><path class="k" d="M817.226,694.854a.97.97,0,0,1-.335-.061.956.956,0,0,1-.559-1.23l11.459-30.558a.955.955,0,1,1,1.788.671L818.12,694.233A.956.956,0,0,1,817.226,694.854Z" transform="translate(-806.722 -662.385)"/></g></g><g transform="translate(8855.028 3181.356)"><g transform="translate(0 67.183)"><path class="e" d="M757.948,509.367s-5.723-5.723-7.63,1.907,3.815,20.984,5.723,20.984,3.815-1.908,3.815-1.908Z" transform="translate(-749.934 -507.307)"/><path class="l" d="M760.1,515.335s-4.4-3.063-5.869,1.02,2.934,11.229,4.4,11.229a6.038,6.038,0,0,0,2.934-1.02Z" transform="translate(-751.641 -510.265)"/></g><g transform="translate(78.594 67.183)"><path class="e" d="M889.012,509.367s5.723-5.723,7.63,1.907-3.815,20.984-5.723,20.984-3.815-1.908-3.815-1.908Z" transform="translate(-887.105 -507.307)"/><path class="l" d="M888.572,515.335s4.4-3.063,5.868,1.02-2.934,11.229-4.4,11.229a6.039,6.039,0,0,1-2.934-1.02Z" transform="translate(-887.105 -510.265)"/></g><g transform="translate(6.107 25.37)"><path class="e" d="M823.541,434.329c7.63,0,13.353,19.076,13.353,40.058,0,30.521-3.815,45.781-15.26,53.412s-19.076,7.63-22.891,7.63-11.445,0-22.89-7.63-15.26-22.891-15.26-53.412c0-20.983,5.722-40.058,13.353-40.058Z" transform="translate(-760.592 -434.329)"/><path class="m" d="M817.189,555.849a17.652,17.652,0,0,0,11.445,0s-2.861,2.861-5.723,2.861S817.189,555.849,817.189,555.849Z" transform="translate(-784.761 -486.223)"/></g><path class="n" d="M762.357,543.484c1.772,16.088,6.054,25.466,14.249,30.929,11.445,7.63,19.076,7.63,22.89,7.63s11.445,0,22.891-7.63c8.2-5.463,12.477-14.841,14.249-30.929-2.8,11.853-12.779,23.3-16.156,23.3-3.815,0,0-13.353-7.631-13.353s-9.538,1.908-13.353,1.908-5.723-1.908-13.353-1.908-3.815,13.353-7.63,13.353C775.136,566.782,765.16,555.337,762.357,543.484Z" transform="translate(-755.239 -455.573)"/><g transform="translate(30.905 103.579)"><path class="o" d="M803.872,570.83a80.669,80.669,0,0,0,26.706,0s-2.225,13.353-13.353,13.353S803.872,570.83,803.872,570.83Z" transform="translate(-803.872 -570.83)"/><path class="k" d="M808.391,571.472c.924,2.722,3.8,4.083,10.764,4.083s9.84-1.361,10.764-4.083a78.152,78.152,0,0,1-21.528,0Z" transform="translate(-805.802 -571.104)"/><path class="k" d="M829.285,587.48a31.316,31.316,0,0,0-16.548,0,11.923,11.923,0,0,0,16.548,0Z" transform="translate(-807.658 -577.465)"/></g><path class="n" d="M831.962,445.9c-.205-2.43-.327-4.864-.4-7.3-.156-4.975-.952-14.011-4.522-18.969-5.723-7.948-1.741-10.012-7.233-15.975-5.563-6.041-15.437-2.84-30.123-8.862-15.022-6.16-27.659-5.842-35.369-1.788,4.61,0,12,3.1,13.551,8.107,0,0-10.791-2.265-17.883,3.1,15.934,4.377,9.061,22.056,7.57,33.089h0a108.591,108.591,0,0,0-1.489,18.177c0,2.259.024,4.424.066,6.519.555-5.731,4.864-24.524,19.008-35.132a34.654,34.654,0,0,0,38.151,0c14.145,10.608,18.454,29.4,19.008,35.132.044-2.095.067-4.26.067-6.519C832.362,452.22,832.223,449.007,831.962,445.9Z" transform="translate(-749.953 -390.051)"/><g transform="translate(11.829 58.458)"><path class="n" d="M796.7,497.722l.895-.9a1.392,1.392,0,0,0-.544-2.306l-6.173-2.057a7.51,7.51,0,0,0-6.023.56l-14.28,7.933,14.339-3.585a4.234,4.234,0,0,1,1.854-.044l6.766,1.353A3.507,3.507,0,0,0,796.7,497.722Z" transform="translate(-770.579 -492.078)"/><path class="n" d="M837.207,497.722l-.9-.9a1.393,1.393,0,0,1,.544-2.306l6.174-2.057a7.51,7.51,0,0,1,6.023.56l14.279,7.933-14.338-3.585a4.237,4.237,0,0,0-1.854-.044l-6.765,1.353A3.508,3.508,0,0,1,837.207,497.722Z" transform="translate(-798.475 -492.078)"/></g><g transform="translate(51.888 65.428)"><circle class="k" cx="7.63" cy="7.63" r="7.63"/><circle class="n" cx="5.723" cy="5.723" r="5.723" transform="translate(1.908 1.908)"/><path class="k" d="M850.014,513.166a1.431,1.431,0,1,1-1.431-1.431A1.431,1.431,0,0,1,850.014,513.166Z" transform="translate(-843.338 -507.443)"/></g><g transform="translate(21.367 65.428)"><circle class="k" cx="7.63" cy="7.63" r="7.63"/><path class="n" d="M802,513.3a5.723,5.723,0,1,1-5.723-5.723A5.722,5.722,0,0,1,802,513.3Z" transform="translate(-788.648 -505.666)"/><path class="k" d="M796.745,513.166a1.431,1.431,0,1,1-1.431-1.431A1.431,1.431,0,0,1,796.745,513.166Z" transform="translate(-790.069 -507.443)"/></g><g transform="translate(6.115 66.382)"><path class="n" d="M826.408,507.34a57.978,57.978,0,0,0-12.4-1.431c-6.915,0-9,1.431-15.261,1.431s-8.345-1.431-15.26-1.431a57.977,57.977,0,0,0-12.4,1.431,79.17,79.17,0,0,1-10.483-.318q.007,1.187.023,2.341l7.811,2.385a2.293,2.293,0,0,1,1.553,1.583c1.43,5.1,2.169,9.27,13.5,9.27,7.63,0,9.9-4.411,10.491-8.107.607-3.767,4.769-3.815,4.769-3.815s4.161.049,4.769,3.815c.6,3.7,2.861,8.107,10.491,8.107,11.326,0,12.065-4.171,13.5-9.27a2.291,2.291,0,0,1,1.553-1.583l7.81-2.385q.015-1.155.023-2.341A79.172,79.172,0,0,1,826.408,507.34Zm-36.594,11.907c-3.822,2.46-12.175,1.6-14.843,0-3.854-2.306-2.749-10.445-2.749-10.445s3.3-1.1,10.926-1.1,8.865,1.1,8.865,1.1S793.261,517.027,789.814,519.247Zm32.713,0c-2.669,1.6-11.021,2.46-14.843,0-3.448-2.219-2.2-10.445-2.2-10.445s1.237-1.1,8.865-1.1,10.926,1.1,10.926,1.1S826.381,516.94,822.527,519.247Z" transform="translate(-760.606 -505.909)"/><g transform="translate(11.469 1.793)"><path class="i" d="M798.362,520.583c-3.822,2.46-12.175,1.6-14.843,0-3.854-2.306-2.749-10.445-2.749-10.445s3.3-1.1,10.926-1.1,8.865,1.1,8.865,1.1S801.809,518.363,798.362,520.583Z" transform="translate(-780.623 -509.038)"/><g transform="translate(0.03 0.003)"><path class="i" d="M808.021,513.832l-10.314,10.314a23.159,23.159,0,0,0,2.453-.027l7.9-7.9C808.093,515.334,808.066,514.505,808.021,513.832Z" transform="translate(-787.948 -511.088)"/><path class="i" d="M793.43,509.043l-10.188,10.188a4.472,4.472,0,0,0,1.4,1.353,9.995,9.995,0,0,0,2.775.989l12.1-12.1A38.146,38.146,0,0,0,793.43,509.043Z" transform="translate(-781.771 -509.043)"/><path class="i" d="M780.675,513.966c.019.364.048.74.091,1.122l5.7-5.7c-.478.039-.925.081-1.34.126Z" transform="translate(-780.675 -509.189)"/></g></g><g transform="translate(44.659 1.793)"><path class="i" d="M855.812,520.583c-2.669,1.6-11.021,2.46-14.843,0-3.447-2.219-2.2-10.445-2.2-10.445s1.237-1.1,8.865-1.1,10.926,1.1,10.926,1.1S859.666,518.276,855.812,520.583Z" transform="translate(-838.55 -509.038)"/><g transform="translate(0.008 0.051)"><path class="i" d="M866.068,516.578a21.387,21.387,0,0,0,.056-2.483l-10.176,10.176a24.644,24.644,0,0,0,2.632-.206Z" transform="translate(-845.988 -511.249)"/><path class="i" d="M851.406,509.127l-10.459,10.46a3.773,3.773,0,0,0,1.046,1.034,9.429,9.429,0,0,0,3.234,1.2l12.132-12.132A47.174,47.174,0,0,0,851.406,509.127Z" transform="translate(-839.582 -509.127)"/><path class="i" d="M838.564,514.079c.01.375.031.76.065,1.149l6.079-6.08q-.7.033-1.291.078Z" transform="translate(-838.564 -509.136)"/></g></g></g></g><g transform="matrix(0.966, 0.259, -0.259, 0.966, 8916.198, 3071.795)"><path class="p" d="M29.778,0,0,10.48,4.706,49.494l25.1,13.8L55.043,49.307l4.7-39.013Z"/><path class="q" d="M27.068,9.231,0,0V56.677L22.684,44.122,27.068,9.231Z" transform="translate(29.709 3.318)"/><path class="r" d="M0,9.4,4.032,44.29,26.367,56.678V0L0,9.4Z" transform="translate(3.342 3.317)"/><path class="s" d="M25.862,28.114,18.411,31.6H10.558L6.866,40.832,0,40.958,18.411,0l7.451,28.114Zm-.72-1.754L18.461,13.132l-5.481,13h5.431l6.731.228Z" transform="translate(11.297 5.376)"/><path class="p" d="M0,0,.049,13.133,6.268,26.142H.014L0,31.59l8.648.008,4.042,9.362,6.57.122L0,0Z" transform="translate(29.708 5.376)"/></g><g transform="matrix(0.998, -0.07, 0.07, 0.998, 9019.006, 3285.743)"><path class="t" d="M54.609,27.309A27.3,27.3,0,1,1,27.3,0,27.31,27.31,0,0,1,54.609,27.309Z" transform="translate(0 0)"/><g transform="translate(15.682 10.312)"><path class="k" d="M22.365,10.307c-.352-3.657-3.509-4.883-7.5-5.232V0H11.78V4.94c-.811,0-1.641.015-2.464.033V0H6.229l0,5.071C5.558,5.084,4.9,5.1,4.26,5.1V5.082L0,5.079v3.3s2.281-.044,2.241,0A1.592,1.592,0,0,1,4.02,9.729v5.781a2.373,2.373,0,0,1,.326.022H4.02l0,8.1a1.091,1.091,0,0,1-1.16,1.022c.039.035-2.244,0-2.244,0L0,28.34H4.02c.747,0,1.483.013,2.2.018l0,5.132H9.311V28.412c.845.017,1.665.024,2.466.024l0,5.053h3.087V28.368c5.191-.3,8.828-1.606,9.278-6.482.365-3.926-1.481-5.68-4.428-6.388A4.77,4.77,0,0,0,22.365,10.307ZM18.043,21.279c0,3.834-6.565,3.4-8.66,3.4v-6.8C11.478,17.882,18.043,17.281,18.043,21.279Zm-1.438-9.593c0,3.489-5.479,3.08-7.223,3.083V8.6C11.129,8.6,16.608,8.048,16.606,11.686Z"/><path class="k" d="M0,0H.459V.339H0Z" transform="translate(4.024 15.374)"/></g></g><g transform="translate(8796.798 3120.952) rotate(-22)"><path class="u" d="M44.305,0H55.381L27.691,47.767,0,0H21.183l6.507,11.076L34.06,0Z" transform="translate(0 0)"/><path class="u" d="M0,0,27.691,47.767,55.381,0H44.305L27.691,28.66,10.938,0Z" transform="translate(0 0)"/><path class="v" d="M0,0,16.753,28.8,33.367,0H23.122L16.753,11.076,10.246,0Z" transform="translate(10.938 0)"/></g></g></svg>