<svg xmlns="http://www.w3.org/2000/svg" width="73.002" height="73.002" viewBox="0 0 73.002 73.002"><defs><style>.a{fill:#0070c0;}.b{fill:#b8b8b8;}</style></defs><g transform="translate(41.302 63.306)"><path d="M292.1,444.418a1.425,1.425,0,1,0,.418,1.008A1.437,1.437,0,0,0,292.1,444.418Z" transform="translate(-289.67 -444)"/></g><path class="a" d="M73,26.588a1.409,1.409,0,0,0-.565-1.063l-.022-.018L65.3,20.364V4.277A4.282,4.282,0,0,0,61.025,0H11.977A4.282,4.282,0,0,0,7.7,4.277V20.363L.59,25.508A1.423,1.423,0,0,0,0,26.663H0v39.21A7.137,7.137,0,0,0,7.129,73H65.873A7.137,7.137,0,0,0,73,65.873V26.663C73,26.635,73,26.61,73,26.588Zm-7.7-2.7,3.936,2.848L65.3,29.944ZM10.551,4.277a1.427,1.427,0,0,1,1.426-1.426H61.025a1.427,1.427,0,0,1,1.426,1.426v28l-17.4,14.21L40.68,43.324a7.116,7.116,0,0,0-8.358,0l-4.366,3.159-17.4-14.21ZM7.7,23.883v6.061L3.764,26.731ZM2.852,29.668,25.565,48.213,2.852,64.648ZM65.873,70.15H7.129a4.281,4.281,0,0,1-3.8-2.325L33.994,45.634a4.269,4.269,0,0,1,5.015,0L63.432,63.306H49.191a1.426,1.426,0,0,0,0,2.852H67.373l2.3,1.667A4.281,4.281,0,0,1,65.873,70.15Zm4.277-5.5L47.437,48.213,70.15,29.668Z"/><g transform="translate(18.032 7.699)"><path class="a" d="M136.989,54h-6.063a1.426,1.426,0,0,0,0,2.852h1.606v7.585a1.606,1.606,0,0,1-3.212,0,1.426,1.426,0,1,0-2.852,0,4.457,4.457,0,0,0,8.915,0V56.852h1.606a1.426,1.426,0,0,0,0-2.852Z" transform="translate(-126.468 -54)"/></g><g transform="translate(29.416 7.699)"><path class="a" d="M213.759,54a7.447,7.447,0,1,0,7.447,7.447A7.455,7.455,0,0,0,213.759,54Zm0,12.042a4.6,4.6,0,1,1,4.6-4.6A4.6,4.6,0,0,1,213.759,66.042Z" transform="translate(-206.312 -54)"/></g><g transform="translate(46.055 7.699)"><path class="a" d="M331.923,58.563A4.568,4.568,0,0,0,327.36,54h-2.926a1.426,1.426,0,0,0-1.426,1.426V67.973a1.426,1.426,0,0,0,1.426,1.426h2.926a4.559,4.559,0,0,0,3.309-7.7A4.545,4.545,0,0,0,331.923,58.563Zm-4.563,7.985h-1.5V63.125h1.5a1.711,1.711,0,0,1,0,3.422Zm0-6.274h-1.5V56.852h1.5a1.711,1.711,0,0,1,0,3.422Z" transform="translate(-323.008 -54)"/></g><g transform="translate(27.997 35.075)"><path class="b" d="M218.029,246H197.783a1.426,1.426,0,0,0,0,2.852h20.247a1.426,1.426,0,0,0,0-2.852Z" transform="translate(-196.357 -246)"/></g><g transform="translate(21.906 27.091)"><path d="M156.074,190.418a1.425,1.425,0,1,0,.418,1.008A1.434,1.434,0,0,0,156.074,190.418Z" transform="translate(-153.64 -190)"/></g><g transform="translate(21.906 35.075)"><path d="M156.074,246.418a1.425,1.425,0,1,0,.418,1.008A1.437,1.437,0,0,0,156.074,246.418Z" transform="translate(-153.64 -246)"/></g><g transform="translate(27.997 27.091)"><path class="b" d="M218.029,190H197.783a1.426,1.426,0,0,0,0,2.852h20.247a1.426,1.426,0,0,0,0-2.852Z" transform="translate(-196.357 -190)"/></g></svg>