<svg xmlns="http://www.w3.org/2000/svg" xmlns:xlink="http://www.w3.org/1999/xlink" width="117.859" height="117.871" viewBox="0 0 117.859 117.871"><defs><style>.a{fill:#fff;}.b{fill:#ffdc4e;}.c{filter:url(#a);}</style><filter id="a" x="0" y="0" width="117.859" height="117.871" filterUnits="userSpaceOnUse"><feOffset dy="3" input="SourceAlpha"/><feGaussianBlur stdDeviation="3" result="b"/><feFlood flood-opacity="0.161"/><feComposite operator="in" in2="b"/><feComposite in="SourceGraphic"/></filter></defs><g transform="translate(9 6)"><g transform="translate(0 1.713) rotate(-1)"><g class="c" transform="matrix(1, 0.02, -0.02, 1, -8.86, -7.87)"><path class="a" d="M98.161,49.088A49.08,49.08,0,1,1,49.076,0,49.091,49.091,0,0,1,98.161,49.088Z" transform="translate(9 7.71) rotate(-1)"/></g><g transform="translate(35.422 46.17)"><path class="a" d="M0,0H.825V.609H0Z"/></g></g><path class="b" d="M67.075,114.149a45.075,45.075,0,1,1,45.075-45.075A45.127,45.127,0,0,1,67.075,114.149Zm0-85.141a40.066,40.066,0,1,0,40.066,40.066A40.112,40.112,0,0,0,67.075,29.008Z" transform="translate(-17.303 -18.703)"/><path d="M66.616,68.494a2.959,2.959,0,0,1-1.1-.211L51.791,62.792,38.065,68.283a2.967,2.967,0,0,1-3.754-4.08L49.137,34.552a3.087,3.087,0,0,1,5.3,0L69.267,64.2a2.966,2.966,0,0,1-2.651,4.291ZM51.791,56.633a2.937,2.937,0,0,1,1.1.211l7.585,3.033L51.791,42.511,43.106,59.88l7.585-3.033a2.94,2.94,0,0,1,1.1-.213Z" transform="translate(-2.019 -9.248)"/><path d="M51.79,70.653a2.97,2.97,0,0,1-2.277-1.064L34.688,51.8a2.97,2.97,0,0,1,1.177-4.655l14.825-5.93a2.948,2.948,0,0,1,2.2,0l14.825,5.93A2.97,2.97,0,0,1,68.9,51.8L54.07,69.589a2.981,2.981,0,0,1-2.28,1.064ZM41.854,51.134,51.79,63.056l9.936-11.923L51.79,47.161Z" transform="translate(-2.018 6.384)"/></g></svg>