<svg xmlns="http://www.w3.org/2000/svg" width="77.927" height="77.934" viewBox="0 0 77.927 77.934"><defs><style>.a{fill:#0070c0;}.b{fill:#1d1c1d;}</style></defs><g transform="translate(-0.023)"><g transform="translate(0.023 24.717)"><g transform="translate(0)"><path class="a" d="M76.428,175.161a1.522,1.522,0,0,0,1.522-1.522v-9.725a1.522,1.522,0,0,0-1.522-1.522l-25.284-.006h0a11.626,11.626,0,0,0-8.219,3.434l-2.379,2.408L36.9,164.58a7.433,7.433,0,0,0-5.29-2.191l-30.062,0a1.522,1.522,0,0,0-1.522,1.522v30.167A1.522,1.522,0,0,0,1.545,195.6H15.12a5.308,5.308,0,0,0,5.121,3.883h.052c0,.018,0,.037,0,.055a5.321,5.321,0,0,0,5.32,5.322h.053c0,.018,0,.035,0,.053a5.321,5.321,0,0,0,5.32,5.322h.053c0,.018,0,.035,0,.053a5.321,5.321,0,0,0,5.32,5.322h0a5.28,5.28,0,0,0,3.244-1.1,5.316,5.316,0,0,0,8.551-4.276h.056a5.314,5.314,0,0,0,5.317-5.373h.056A5.315,5.315,0,0,0,58.9,199.48h.056a5.323,5.323,0,0,0,5.124-3.884H76.428a1.522,1.522,0,0,0,1.522-1.522v-8.768a1.522,1.522,0,0,0-3.044,0v7.246H69.731V165.826a1.523,1.523,0,0,0-.053-.391h5.227v8.2A1.522,1.522,0,0,0,76.428,175.161ZM20.242,196.439h0a2.277,2.277,0,0,1-1.609-3.887l3.224-3.223a2.277,2.277,0,1,1,3.219,3.22l-3.224,3.223A2.262,2.262,0,0,1,20.242,196.439Zm5.371,5.373h0A2.277,2.277,0,0,1,24,197.925l3.224-3.223a2.262,2.262,0,0,1,1.61-.667h0a2.263,2.263,0,0,1,1.61.667h0a2.279,2.279,0,0,1,0,3.219l-3.224,3.223A2.262,2.262,0,0,1,25.613,201.812Zm3.761,4.706a2.279,2.279,0,0,1,0-3.22l3.224-3.223a2.262,2.262,0,0,1,1.61-.667h0a2.277,2.277,0,0,1,1.609,3.887l-3.224,3.223A2.279,2.279,0,0,1,29.374,206.518Zm9.151,4.814h0l-.558.558a2.261,2.261,0,0,1-1.609.667h0a2.277,2.277,0,0,1-1.609-3.887l3.224-3.223a2.262,2.262,0,0,1,1.61-.667h0a2.262,2.262,0,0,1,1.61.667h0a2.276,2.276,0,0,1,0,3.219Zm5.918.552a2.279,2.279,0,0,1-2.6.437l1.5-1.5a5.3,5.3,0,0,0,1.256-1.987A2.28,2.28,0,0,1,44.443,211.884Zm16.119-16.114a2.262,2.262,0,0,1-1.61.667h0a2.263,2.263,0,0,1-1.61-.667l-9.624-9.625a1.522,1.522,0,1,0-2.152,2.152l9.624,9.625a2.277,2.277,0,0,1-1.61,3.886h0a2.262,2.262,0,0,1-1.61-.667l-9.624-9.625a1.522,1.522,0,1,0-2.152,2.152l9.624,9.625a2.277,2.277,0,0,1-1.61,3.886h0a2.262,2.262,0,0,1-1.61-.667l-3.06-3.061a1.524,1.524,0,0,0-.233-.191,5.284,5.284,0,0,0-3.723-1.522h-.055a5.3,5.3,0,0,0-1.554-3.815h0a5.286,5.286,0,0,0-3.762-1.559h-.055a5.315,5.315,0,0,0-5.316-5.374h-.055a5.3,5.3,0,0,0-1.554-3.815h0a5.327,5.327,0,0,0-7.525,0L16.481,190.4a5.287,5.287,0,0,0-1.308,2.154H11.286V175.491a1.522,1.522,0,0,0-3.044,0v17.063H3.067V165.43l28.54,0a4.409,4.409,0,0,1,3.137,1.3l3.66,3.661-3.064,3.1a5.509,5.509,0,0,0,6.75,8.6l5.014-3,13.459,13.46a2.258,2.258,0,0,1,.651,1.354,1.541,1.541,0,0,0-.01.171,1.523,1.523,0,0,0,.019.227A2.258,2.258,0,0,1,60.562,195.771Zm6.125-29.945v26.727H64.026a5.3,5.3,0,0,0-1.311-2.155L49.8,177.478l1.967-1.178h9.82a1.522,1.522,0,1,0,0-3.044H51.342a1.522,1.522,0,0,0-.782.216l-10.034,6.009a2.465,2.465,0,0,1-3.02-3.848l7.583-7.675a8.562,8.562,0,0,1,6.053-2.529h0l15.6,0A1.521,1.521,0,0,0,66.687,165.826Z" transform="translate(-0.023 -162.386)"/></g></g><g transform="translate(74.906 39.8)"><path d="M494.579,261.923a1.521,1.521,0,1,0,.446,1.076A1.533,1.533,0,0,0,494.579,261.923Z" transform="translate(-491.981 -261.477)"/></g><g transform="translate(8.242 30.592)"><path d="M56.617,201.428a1.521,1.521,0,1,0,.446,1.076A1.534,1.534,0,0,0,56.617,201.428Z" transform="translate(-54.019 -200.982)"/></g><g transform="translate(23.462)"><path class="a" d="M180.493,0H158.576a4.571,4.571,0,0,0-4.566,4.566V15.829a4.571,4.571,0,0,0,4.566,4.566h5.305l4.577,4.577a1.522,1.522,0,0,0,2.152,0l4.577-4.577h5.305a4.571,4.571,0,0,0,4.566-4.566V4.566A4.571,4.571,0,0,0,180.493,0Zm1.522,15.829a1.524,1.524,0,0,1-1.522,1.522h-5.936a1.522,1.522,0,0,0-1.076.446l-3.946,3.946L165.588,17.8a1.522,1.522,0,0,0-1.076-.446h-5.936a1.524,1.524,0,0,1-1.522-1.522V4.566a1.524,1.524,0,0,1,1.522-1.522h21.917a1.524,1.524,0,0,1,1.522,1.522Z" transform="translate(-154.01)"/></g><g transform="translate(30.311 8.663)"><path class="b" d="M201.6,57.361a1.521,1.521,0,1,0,.446,1.076A1.527,1.527,0,0,0,201.6,57.361Z" transform="translate(-199.006 -56.915)"/></g><g transform="translate(37.464 8.663)"><path class="b" d="M248.6,57.361a1.521,1.521,0,1,0,.446,1.076A1.527,1.527,0,0,0,248.6,57.361Z" transform="translate(-246.002 -56.915)"/></g><g transform="translate(44.618 8.663)"><path class="b" d="M295.6,57.361a1.521,1.521,0,1,0,.446,1.076A1.527,1.527,0,0,0,295.6,57.361Z" transform="translate(-292.998 -56.915)"/></g></g></svg>