<svg xmlns="http://www.w3.org/2000/svg" width="73" height="73.002" viewBox="0 0 73 73.002"><defs><style>.a{fill:#0070c0;}.b{fill:#b8b8b8;}</style></defs><g transform="translate(-0.007 0)"><g transform="translate(0.007)"><g transform="translate(0)"><path class="a" d="M59.036,21.209a1.426,1.426,0,0,0,1.426-1.426V4.277A4.282,4.282,0,0,0,56.184,0H4.284A4.282,4.282,0,0,0,.007,4.277V68.724A4.282,4.282,0,0,0,4.284,73h51.9a4.282,4.282,0,0,0,4.277-4.277V58.22a1.426,1.426,0,0,0-2.852,0v10.5a1.427,1.427,0,0,1-1.426,1.426H4.284a1.427,1.427,0,0,1-1.426-1.426V4.277A1.427,1.427,0,0,1,4.284,2.852h51.9A1.427,1.427,0,0,1,57.61,4.277V19.783A1.426,1.426,0,0,0,59.036,21.209Z" transform="translate(-0.007)"/></g></g><g transform="translate(17.117 7.699)"><path class="a" d="M133.125,54a13.111,13.111,0,0,0-9,22.652,1.41,1.41,0,0,0,.153.143,13.093,13.093,0,0,0,17.692,0,1.426,1.426,0,0,0,.153-.143,13.111,13.111,0,0,0-9-22.652Zm0,23.383a10.211,10.211,0,0,1-6.2-2.091,7.129,7.129,0,0,1,12.4,0A10.211,10.211,0,0,1,133.125,77.383Zm-2.281-10.836V65.62a2.281,2.281,0,0,1,4.563,0v.927a2.281,2.281,0,0,1-4.563,0ZM141.386,73.2a9.892,9.892,0,0,0-4.2-3.521,5.106,5.106,0,0,0,1.073-3.135V65.62a5.133,5.133,0,1,0-10.266,0v.927a5.106,5.106,0,0,0,1.073,3.135,9.892,9.892,0,0,0-4.2,3.521,10.266,10.266,0,1,1,16.522,0Z" transform="translate(-120.007 -54)"/></g><g transform="translate(28.808 62.451)"><path class="a" d="M211.132,438h-7.7a1.426,1.426,0,1,0,0,2.852h7.7a1.426,1.426,0,1,0,0-2.852Z" transform="translate(-202.007 -438)"/></g><g transform="translate(16.261 54.466)"><path class="a" d="M135.679,382H115.433a1.426,1.426,0,0,0,0,2.852h20.247a1.426,1.426,0,1,0,0-2.852Z" transform="translate(-114.007 -382)"/></g><g transform="translate(16.261 46.482)"><path class="b" d="M135.679,326H115.433a1.426,1.426,0,0,0,0,2.852h20.247a1.426,1.426,0,1,0,0-2.852Z" transform="translate(-114.007 -326)"/></g><g transform="translate(10.17 38.497)"><path class="a" d="M73.722,270.418a1.425,1.425,0,1,0,.418,1.008A1.437,1.437,0,0,0,73.722,270.418Z" transform="translate(-71.287 -270)"/></g><g transform="translate(10.17 46.482)"><path class="a" d="M73.722,326.418a1.425,1.425,0,1,0,.418,1.008A1.439,1.439,0,0,0,73.722,326.418Z" transform="translate(-71.287 -326)"/></g><g transform="translate(10.17 54.466)"><path class="a" d="M73.722,382.418a1.425,1.425,0,1,0,.418,1.008A1.439,1.439,0,0,0,73.722,382.418Z" transform="translate(-71.287 -382)"/></g><g transform="translate(16.261 38.497)"><path class="b" d="M135.679,270H115.433a1.426,1.426,0,0,0,0,2.852h20.247a1.426,1.426,0,1,0,0-2.852Z" transform="translate(-114.007 -270)"/></g><g transform="translate(42.437 17.776)"><path class="a" d="M325.166,125.48a5.988,5.988,0,0,0-8.18,2.192l-17.943,31.078a1.428,1.428,0,0,0-.182.555L297.6,170.617a1.426,1.426,0,0,0,2.262,1.306l9.166-6.75a1.424,1.424,0,0,0,.389-.435l17.943-31.078A6,6,0,0,0,325.166,125.48Zm-24.373,42.215.66-5.907,4.127,2.383Zm6.865-5.617-5.433-3.137L316.624,134l5.433,3.137Zm17.23-29.843-1.405,2.434-5.433-3.137,1.405-2.434a3.137,3.137,0,0,1,5.433,3.137Z" transform="translate(-297.589 -124.675)"/></g></g></svg>