<svg xmlns="http://www.w3.org/2000/svg" width="1440" height="413" viewBox="0 0 1440 413"><defs><style>.a{fill:#0070c0;}.b{fill:#61c7f2;}.c{fill:#8cdbff;}.d{fill:#5fc3ed;}.e{fill:#abe4ff;}.f{fill:#ccefff;}.g{fill:#ffddcf;}.h{fill:#cfc1d4;}.i{fill:#fff;}.j{fill:#1a171b;}.k{fill:#e281b5;}.l{fill:#3e3d40;}</style></defs><g transform="translate(0 -1897)"><rect class="a" width="1440" height="413" transform="translate(0 1897)"/><g transform="translate(197.513 1962.936) rotate(-11)"><rect class="b" width="8" height="8" transform="translate(0)"/><rect class="b" width="7.764" height="7.765" transform="translate(11.118)"/><rect class="b" width="7.765" height="7.765" transform="translate(22.235)"/></g><g transform="translate(790.824 1936.973)"><path class="c" d="M566.759,168.172c-5.917.05-6.089.228-6.174,11.869-.085-11.625-.259-11.819-6.174-11.869,5.907-.05,6.113-.22,6.174-11.869C560.658,167.944,560.847,168.122,566.759,168.172Z" transform="translate(-554.411 -132.634)"/><path class="c" d="M1157.247,111.831c-5.917.049-6.089.228-6.174,11.869-.085-11.626-.258-11.82-6.174-11.869,5.907-.05,6.113-.221,6.174-11.869C1151.145,111.6,1151.335,111.781,1157.247,111.831Z" transform="translate(-896.833 -99.962)"/><path class="c" d="M842.063,776.652c-5.917.05-6.089.228-6.174,11.869-.085-11.625-.259-11.819-6.174-11.869,5.907-.05,6.113-.22,6.174-11.868C835.961,776.424,836.151,776.6,842.063,776.652Z" transform="translate(-714.059 -485.49)"/><path class="c" d="M1803.157,425.618c-5.917.049-6.089.228-6.174,11.868-.085-11.624-.259-11.819-6.175-11.868,5.908-.051,6.114-.221,6.175-11.869C1797.056,425.39,1797.245,425.567,1803.157,425.618Z" transform="translate(-1271.395 -281.926)"/><path class="c" d="M1763.157,903.618c-5.917.049-6.089.228-6.174,11.868-.085-11.624-.259-11.819-6.175-11.868,5.908-.051,6.114-.221,6.175-11.869C1757.056,903.39,1757.245,903.567,1763.157,903.618Z" transform="translate(-1248.199 -559.117)"/><path class="c" d="M853.075,241.866c-5.917.049-6.089.227-6.174,11.868-.085-11.625-.259-11.819-6.174-11.868,5.907-.05,6.114-.221,6.174-11.869C846.974,241.637,847.163,241.815,853.075,241.866Z" transform="translate(-720.445 -175.369)"/><path class="c" d="M1665.651,219.111c-5.917.05-6.089.228-6.174,11.869-.085-11.625-.259-11.819-6.174-11.869,5.907-.05,6.114-.221,6.174-11.869C1659.55,218.883,1659.739,219.06,1665.651,219.111Z" transform="translate(-1191.655 -162.173)"/><path class="c" d="M1876.652,119.111c-5.917.05-6.089.228-6.174,11.869-.085-11.625-.259-11.819-6.174-11.869,5.908-.05,6.114-.221,6.174-11.869C1870.55,118.883,1870.739,119.06,1876.652,119.111Z" transform="translate(-1314.014 -104.184)"/></g><g transform="translate(1221.565 1945.491)"><g transform="translate(20.078 54.193)"><rect class="d" width="7.316" height="7.317"/><rect class="d" width="7.316" height="7.317" transform="translate(10.475)"/><rect class="d" width="7.316" height="7.317" transform="translate(20.95)"/></g><path class="c" d="M405.847,311.453a11.481,11.481,0,0,1,2.541.287,13.289,13.289,0,0,1,16.8-12.468,11.391,11.391,0,0,1,20.515,2.074c.213-.011.429-.017.646-.017A12.655,12.655,0,0,1,459,313.985c0,.1,0,.21-.005.316a10.126,10.126,0,0,1-2.524,19.931H405.847a11.389,11.389,0,0,1,0-22.779Z" transform="translate(-335.155 -293.737)"/><path class="e" d="M277.181,321.477c.12,0,.239.005.357.009a19.133,19.133,0,0,1,31.084-8.157,14.358,14.358,0,0,1,18.282,5.143,10.764,10.764,0,0,1,14.2,9.051,11.784,11.784,0,0,1,1.257-.066,11.959,11.959,0,1,1,0,23.918H277.781v-.015c-.2.006-.4.015-.6.015a14.949,14.949,0,0,1,0-29.9Z" transform="translate(-262.234 -301.78)"/></g><g transform="translate(-544.055 -100.481)"><g transform="translate(632.325 2095.481)"><g transform="translate(0 0)"><circle class="f" cx="108.588" cy="108.588" r="108.588"/><circle class="c" cx="102.935" cy="102.935" r="102.935" transform="translate(5.653 5.653)"/></g><g transform="translate(5.104 2.001)"><g transform="translate(65.58 110.357)"><path class="g" d="M1275.026,690.918l-2.511,10.046v22.6h35.162v-22.6l-2.511-10.046Z" transform="translate(-1272.514 -690.918)"/><path class="h" d="M1276.554,690.918l-1.185,4.741c8.563,10.329,25.908,9.858,33.836,5.305l-2.512-10.046Z" transform="translate(-1274.043 -690.918)"/></g><g transform="translate(148.463 155.565)"><path class="g" d="M1466,788.237s27.586,24.5,60.278,22.6c12.165-.706,19.26-8.141,22.6-7.535,1.655.3-3.626,7.681-3.626,7.681a63.5,63.5,0,0,0,23.092.639c2.457-.521.627,6.75-4.4,9.262s-20.093,7.535-32.651,0c-28.569,8.162-50.859,4.549-65.3-2.512-13.157-6.432-15.07-10.047-15.07-10.047Z" transform="translate(-1450.933 -788.237)"/></g><g transform="translate(0 114.752)"><path class="a" d="M1257.2,708.542l-25.116-2.511s-2.512,15.07-17.581,15.07-17.582-15.07-17.582-15.07l-25.116,2.511c-13.186,1.465-28.778-2.093-40.185-8.162,0,0-2.512,28.255,7.535,43.325,0,0,17.581,10.047,37.674,2.512,0,0,7.535,17.581,7.535,32.651a152.966,152.966,0,0,1-1.185,15.641,144.617,144.617,0,0,0,63.224,1.635,82.009,82.009,0,0,1-1.76-17.277c0-15.07,7.535-32.651,7.535-32.651,10.047,17.581,27.627,25.116,27.627,25.116s12.558-10.047,20.093-32.651a86.718,86.718,0,0,1-20.093-15.07C1269.757,713.566,1270.228,709.641,1257.2,708.542Z" transform="translate(-1131.341 -700.38)"/><g transform="translate(64.325 42.069)"><path class="i" d="M1281.48,828.63a1.056,1.056,0,0,1-.544-.151l-10.609-6.365a1.061,1.061,0,0,1,0-1.819l10.609-6.365a1.061,1.061,0,1,1,1.091,1.819l-9.093,5.456,9.093,5.456a1.061,1.061,0,0,1-.547,1.971Z" transform="translate(-1269.811 -803.169)"/><path class="i" d="M1325.683,828.63a1.061,1.061,0,0,1-.546-1.971l9.092-5.456-9.092-5.456a1.061,1.061,0,1,1,1.091-1.819l10.609,6.365a1.06,1.06,0,0,1,0,1.819l-10.609,6.365A1.06,1.06,0,0,1,1325.683,828.63Z" transform="translate(-1299.16 -803.169)"/><path class="i" d="M1295.709,827.012a1.062,1.062,0,0,1-.993-1.434l12.731-33.948a1.061,1.061,0,1,1,1.987.745L1296.7,826.323A1.062,1.062,0,0,1,1295.709,827.012Z" transform="translate(-1283.11 -790.94)"/></g></g><g transform="translate(43.551 0)"><g transform="translate(0 65.651)"><path class="g" d="M1192.751,541.113s-5.592-5.592-7.456,1.864,3.728,20.5,5.592,20.5,3.728-1.864,3.728-1.864Z" transform="translate(-1184.92 -539.1)"/><path class="h" d="M1197.438,551.424s-4.3-2.993-5.734,1,2.867,10.973,4.3,10.973a5.9,5.9,0,0,0,2.867-1Z" transform="translate(-1189.176 -546.469)"/></g><g transform="translate(76.801 65.651)"><path class="g" d="M1409.544,541.113s5.592-5.592,7.456,1.864-3.728,20.5-5.592,20.5-3.728-1.864-3.728-1.864Z" transform="translate(-1407.68 -539.1)"/><path class="h" d="M1409.113,551.424s4.3-2.993,5.734,1-2.867,10.973-4.3,10.973a5.9,5.9,0,0,1-2.867-1Z" transform="translate(-1407.68 -546.469)"/></g><g transform="translate(5.967 24.791)"><path class="g" d="M1263.741,420.587c7.456,0,13.048,18.64,13.048,39.145,0,29.825-3.728,44.737-14.912,52.193s-18.64,7.456-22.368,7.456-11.184,0-22.369-7.456-14.912-22.369-14.912-52.193c0-20.5,5.592-39.145,13.048-39.145Z" transform="translate(-1202.228 -420.587)"/><path class="h" d="M1294.141,617.929a17.244,17.244,0,0,0,11.184,0s-2.8,2.8-5.592,2.8S1294.141,617.929,1294.141,617.929Z" transform="translate(-1262.452 -549.891)"/></g><path class="j" d="M1205.1,597.85c1.731,15.721,5.916,24.884,13.924,30.223,11.184,7.456,18.64,7.456,22.369,7.456s11.184,0,22.368-7.456c8.008-5.339,12.193-14.5,13.924-30.223-2.74,11.583-12.487,22.767-15.788,22.767-3.728,0,0-13.048-7.456-13.048s-9.32,1.864-13.048,1.864-5.592-1.864-13.048-1.864-3.728,13.048-7.456,13.048C1217.583,620.617,1207.835,609.432,1205.1,597.85Z" transform="translate(-1198.14 -511.944)"/><g transform="translate(30.2 101.217)"><path class="k" d="M1272.514,642.259a78.84,78.84,0,0,0,26.1,0s-2.175,13.048-13.048,13.048S1272.514,642.259,1272.514,642.259Z" transform="translate(-1272.514 -642.259)"/><path class="i" d="M1279.852,643.3c.9,2.66,3.716,3.99,10.519,3.99s9.615-1.33,10.518-3.99a76.336,76.336,0,0,1-21.037,0Z" transform="translate(-1277.322 -642.942)"/><path class="i" d="M1303.08,668.577a30.609,30.609,0,0,0-16.17,0,11.65,11.65,0,0,0,16.17,0Z" transform="translate(-1281.947 -658.791)"/></g><path class="j" d="M1265.106,403.26c-.2-2.375-.319-4.753-.394-7.135-.153-4.862-.93-13.691-4.419-18.536-5.592-7.767-1.7-9.784-7.068-15.612-5.437-5.9-15.085-2.775-29.436-8.66-14.679-6.019-27.029-5.709-34.563-1.748,4.5,0,11.728,3.029,13.243,7.922,0,0-10.545-2.213-17.476,3.029,15.57,4.278,8.854,21.553,7.4,32.334h0a106.121,106.121,0,0,0-1.455,17.762c0,2.207.023,4.323.065,6.37.542-5.6,4.753-23.964,18.575-34.331a33.864,33.864,0,0,0,37.281,0c13.822,10.366,18.033,28.731,18.575,34.331.042-2.047.066-4.163.066-6.37C1265.5,409.432,1265.363,406.292,1265.106,403.26Z" transform="translate(-1184.969 -348.681)"/><g transform="translate(11.559 57.124)"><path class="j" d="M1243.977,519.883l.874-.874a1.36,1.36,0,0,0-.532-2.253l-6.032-2.011a7.342,7.342,0,0,0-5.886.547l-13.954,7.752,14.012-3.5a4.13,4.13,0,0,1,1.811-.043l6.611,1.322A3.427,3.427,0,0,0,1243.977,519.883Z" transform="translate(-1218.448 -514.369)"/><path class="j" d="M1325.805,519.883l-.875-.874a1.36,1.36,0,0,1,.532-2.253l6.032-2.011a7.341,7.341,0,0,1,5.886.547l13.953,7.752-14.011-3.5a4.132,4.132,0,0,0-1.812-.043l-6.611,1.322A3.426,3.426,0,0,1,1325.805,519.883Z" transform="translate(-1287.957 -514.369)"/></g><g transform="translate(48.408 61.639)"><circle class="i" cx="7.456" cy="7.456" r="7.456" transform="matrix(0.385, -0.923, 0.923, 0.385, 0, 13.761)"/><circle class="j" cx="5.592" cy="5.592" r="5.592" transform="translate(2.062 7.911) rotate(-31.53)"/><circle class="i" cx="1.398" cy="1.398" r="1.398" transform="translate(6.025 6.491)"/></g><g transform="translate(17.791 60.847)"><circle class="i" cx="7.456" cy="7.456" r="7.456" transform="translate(0 10.545) rotate(-45)"/><circle class="j" cx="5.592" cy="5.592" r="5.592" transform="translate(2.636 10.545) rotate(-45)"/><path class="i" d="M1259.09,547.689a1.4,1.4,0,1,1-1.4-1.4A1.4,1.4,0,0,1,1259.09,547.689Z" transform="translate(-1249.478 -539.008)"/></g><g transform="translate(5.976 64.868)"><path class="j" d="M1266.553,538.227a56.657,56.657,0,0,0-12.116-1.4c-6.757,0-8.8,1.4-14.913,1.4s-8.155-1.4-14.912-1.4a56.654,56.654,0,0,0-12.116,1.4,77.293,77.293,0,0,1-10.244-.311q.007,1.16.022,2.288l7.632,2.331a2.239,2.239,0,0,1,1.518,1.546c1.4,4.983,2.12,9.059,13.188,9.059,7.456,0,9.67-4.31,10.252-7.922.594-3.68,4.66-3.728,4.66-3.728s4.066.048,4.66,3.728c.583,3.612,2.8,7.922,10.253,7.922,11.068,0,11.79-4.076,13.188-9.059a2.239,2.239,0,0,1,1.518-1.546l7.632-2.331q.015-1.129.023-2.288A77.292,77.292,0,0,1,1266.553,538.227Zm-35.76,11.635c-3.734,2.4-11.9,1.561-14.5,0-3.766-2.253-2.686-10.206-2.686-10.206s3.223-1.075,10.677-1.075,8.662,1.075,8.662,1.075S1234.162,547.694,1230.793,549.862Zm31.967,0c-2.608,1.561-10.77,2.4-14.505,0-3.369-2.168-2.149-10.206-2.149-10.206s1.209-1.075,8.663-1.075,10.677,1.075,10.677,1.075S1266.527,547.609,1262.76,549.862Z" transform="translate(-1202.252 -536.829)"/><g transform="translate(11.207 1.752)"><path class="l" d="M1252.092,553.191c-3.734,2.4-11.9,1.561-14.5,0-3.766-2.253-2.686-10.207-2.686-10.207s3.223-1.075,10.677-1.075,8.663,1.075,8.663,1.075S1255.462,551.023,1252.092,553.191Z" transform="translate(-1234.758 -541.91)"/><g transform="translate(0.029 0.003)"><path class="l" d="M1272.581,549.7,1262.5,559.776a22.508,22.508,0,0,0,2.4-.027l7.723-7.723C1272.651,551.164,1272.624,550.355,1272.581,549.7Z" transform="translate(-1252.966 -547.015)"/><path class="l" d="M1248.967,541.918l-9.956,9.956a4.362,4.362,0,0,0,1.364,1.322,9.759,9.759,0,0,0,2.712.966l11.823-11.823A37.353,37.353,0,0,0,1248.967,541.918Z" transform="translate(-1237.573 -541.918)"/><path class="l" d="M1234.842,546.951c.019.356.047.723.089,1.1l5.573-5.573c-.467.038-.9.079-1.309.123Z" transform="translate(-1234.842 -542.282)"/></g></g><g transform="translate(43.64 1.752)"><path class="l" d="M1345.7,553.191c-2.608,1.561-10.77,2.4-14.5,0-3.369-2.168-2.149-10.207-2.149-10.207s1.208-1.075,8.662-1.075,10.677,1.075,10.677,1.075S1349.464,550.938,1345.7,553.191Z" transform="translate(-1328.829 -541.91)"/><g transform="translate(0.008 0.05)"><path class="l" d="M1366.971,552.549a20.859,20.859,0,0,0,.056-2.426l-9.944,9.944a24.248,24.248,0,0,0,2.573-.2Z" transform="translate(-1347.349 -547.342)"/><path class="l" d="M1342.943,542.056l-10.221,10.221a3.68,3.68,0,0,0,1.021,1.01,9.211,9.211,0,0,0,3.16,1.173l11.856-11.856A46.08,46.08,0,0,0,1342.943,542.056Z" transform="translate(-1331.388 -542.056)"/><path class="l" d="M1328.852,546.908c.01.366.03.743.063,1.122l5.941-5.941q-.68.031-1.262.076Z" transform="translate(-1328.852 -542.078)"/></g></g></g></g></g></g></g></g></svg>