<svg xmlns="http://www.w3.org/2000/svg" width="44" height="48" viewBox="0 0 44 48"><title>global</title><g id="Layer_6" data-name="Layer 6"><circle cx="22" cy="24" r="22" style="fill:#6772e5"/><path d="M22,2A22,22,0,0,0,3.18,12.6l2.81-1a.52.52,0,0,1,.61.2l.55.81a.54.54,0,0,0,.84,0l2.19-2.54a.61.61,0,0,0,.07-.1l.36-.72a.48.48,0,0,0-.14-.59L10,8.35a.47.47,0,0,1,0-.78L12.45,6l.86.43L12.24,8l3.53-1.36a.55.55,0,0,1,.51.07l1.07.76L13.26,9.18a.43.43,0,0,0-.22.18l-.66,1a.5.5,0,0,0,.62.72l1.54-.55a.66.66,0,0,1,.24,0l1.73.18a.49.49,0,0,0,.37-.1l3-2.24A.46.46,0,0,0,20,7.69L18.35,5.16a.48.48,0,0,1,.35-.74l4.7-.74a.58.58,0,0,1,.32,0l3.16,1.55a.57.57,0,0,1,.25.26l.36.86a.49.49,0,0,1-.4.66l-2.21.34,1.56,1a.48.48,0,0,1,.13.68l-1.65,2.34a.53.53,0,0,1-.51.21l-2.34-.34a.56.56,0,0,0-.4.09l-3,2.21a.47.47,0,0,0-.16.57l.46,1.14a.48.48,0,0,1-.2.58l-.6.38a.53.53,0,0,1-.76-.21l-.53-1.17a.53.53,0,0,0-.81-.18l-1.45,1.14a.49.49,0,0,0-.18.46l.34,2.07a.51.51,0,0,1-.5.57l-.76,0a.51.51,0,0,0-.48.39l-.74,3.05a.47.47,0,0,1-.18.28L8.81,25.21a.43.43,0,0,0-.18.28l-.74,3.38a.45.45,0,0,0,.1.4l2.57,3.15a.53.53,0,0,0,.33.19l5.07.74a.51.51,0,0,1,.41.32L18,37.84a.5.5,0,0,1,0,.34l-.57,1.41a.48.48,0,0,0,.1.51L20,42.78a.55.55,0,0,0,.52.15l5.2-1.26a.5.5,0,0,0,.39-.46l0-1a.49.49,0,0,1,.27-.41L27.9,39a.52.52,0,0,0,.27-.43V35.94a.46.46,0,0,1,.1-.29l2.93-3.83a.5.5,0,0,0-.55-.77l-1.32.34a.54.54,0,0,1-.55-.18l-3.87-4.82.76-.44a.55.55,0,0,1,.65.09l3.2,3.27a.55.55,0,0,0,.73,0l2-1.71a.48.48,0,0,0,0-.74L30,25l.23-.73,2.71.89a.53.53,0,0,0,.33,0l2-.61a.56.56,0,0,1,.4,0l1.57.79a.49.49,0,0,1,.25.28l.94,2.67a.51.51,0,0,0,.62.32l.78-.19a.48.48,0,0,0,.37-.6l-.68-2.38a.39.39,0,0,1,0-.26l.82-2.92A.53.53,0,0,1,41,22l.77.25c.12,0,1.44.73,2.19,1.18A22,22,0,0,0,22,2Zm4.21,21.93a.57.57,0,0,1-.64.53l-3.74-.35a.46.46,0,0,0-.42.18l-.42.58a.48.48,0,0,1-.57.14l-3.31-.21a.56.56,0,0,1-.49-.77l.58-1.32a.56.56,0,0,0-.48-.77l-1.39-.12a.55.55,0,0,1-.26-1l2.27-1.42a.61.61,0,0,1,.8.16l1.14,1.59a.53.53,0,0,1,.09.42l-.24,1.16.94-.15a.55.55,0,0,0,.43-.78L19,18.88l1.32,0a.59.59,0,0,1,.5.29l1.46,2.63a.61.61,0,0,0,.46.29l2.93.26a.58.58,0,0,1,.53.57Zm.43-3.65-1.52.21a.56.56,0,0,1-.64-.7l.27-.84a.6.6,0,0,1,.83-.33l1.24.63A.54.54,0,0,1,26.64,20.28Z" style="fill:#87bbfd"/></g></svg>