<svg xmlns="http://www.w3.org/2000/svg" width="52" height="48" viewBox="0 0 52 48"><title>partnerships</title><g id="Layer_7" data-name="Layer 7"><path d="M22.39,36.29a.84.84,0,1,1,1.18-1.19l4.59,4.46a2,2,0,0,0,2.23.41l.32-.14a1.42,1.42,0,0,0,.42-2.29l-4.42-4.29a.84.84,0,0,1,1.19-1.19l5.29,5.17a2,2,0,0,0,2.27.4l.3-.14a1.42,1.42,0,0,0,.4-2.29L31,30.2A.84.84,0,0,1,32.22,29l4.57,4.45a1.53,1.53,0,0,0,2.6-.79,2.86,2.86,0,0,0-.81-2.36L27.78,19.57a10.46,10.46,0,0,0-7.45-3.05l-9.73,0L4.33,22.62,19.47,38.46A10.46,10.46,0,0,0,24.27,41a1.15,1.15,0,0,0,1-1.94Z" style="fill:#87bbfd"/><rect x="-1" y="14.42" width="18.73" height="7.49" rx="2.19" ry="2.19" transform="translate(-10.39 11.24) rotate(-45)" style="fill:#6772e5"/><path d="M48,22.07l-9.85,7.8L27.61,19.56a3,3,0,0,0-4.08-.18l-2.88,2.4a2.41,2.41,0,0,1-3.24-.15h0a2.4,2.4,0,0,1,.09-3.49l4.26-3.84a7.66,7.66,0,0,1,10.11-.11h0a9.54,9.54,0,0,0,6.27,2.31H41.4Z" style="fill:#6772e5"/><rect x="39.89" y="8.8" width="7.49" height="18.73" rx="2.19" ry="2.19" transform="translate(-0.06 36.17) rotate(-45)" style="fill:#87bbfd"/></g></svg>