<svg xmlns="http://www.w3.org/2000/svg" width="248" height="120" viewBox="0 0 248 120"><path d="M152.51 93.42c-14.16 10.45-34.68 16-52.36 16A94.74 94.74 0 0 1 36.2 85c-1.32-1.2-.14-2.84 1.45-1.91a128.69 128.69 0 0 0 64 17 127.16 127.16 0 0 0 48.81-10c2.39-1 4.4 1.58 2.06 3.31" fill="#6b7c93"/><path d="M158.4 86.7c1.81 2.32-2 11.87-3.72 16.14-.52 1.29.59 1.81 1.76.83 7.59-6.35 9.55-19.66 8-21.59s-14.82-3.54-22.92 2.15c-1.25.87-1 2.08.34 1.91 4.57-.54 14.72-1.76 16.54.56M142.19 44a1.37 1.37 0 0 0 1.43 1.39h12.95l-14.88 21.37a6.69 6.69 0 0 0-.92 3.8v5.6c0 .82.9 1.74 1.77 1.29a28.51 28.51 0 0 1 26.19 0c.93.49 1.82-.45 1.82-1.26v-5.9a2.51 2.51 0 0 0-1.31-2.16 27.47 27.47 0 0 0-14.14-3l12.84-18.33c1.19-1.65 1.86-2.69 1.86-3.48v-4.83a1.38 1.38 0 0 0-1.42-1.4h-24.79a1.37 1.37 0 0 0-1.4 1.4V44M51.77 78.56a1.41 1.41 0 0 0 1.45-1.39V56.65C53.23 52.17 53 46 58.44 46s4.64 6.35 4.64 10.66v20.52a1.4 1.4 0 0 0 1.35 1.38H72a1.42 1.42 0 0 0 1.45-1.39V56.65c0-2.2-.07-5.45.7-7.4a5 5 0 0 1 4.51-3.18c2.18 0 3.87.73 4.43 3.34.36 1.54.22 5.62.22 7.24v20.53a1.4 1.4 0 0 0 1.35 1.38h7.53a1.43 1.43 0 0 0 1.46-1.39V52.75c0-4.16.48-8.89-1.91-12.14a11.14 11.14 0 0 0-19.14 2.93c-2.12-4.88-5.07-7.16-9.79-7.16s-8.1 2.28-9.92 7.16h-.14v-5a1.42 1.42 0 0 0-1.38-1.3h-7a1.43 1.43 0 0 0-1.46 1.39v38.66a1.41 1.41 0 0 0 1.35 1.27h7.54m139.34-42.19c-10.91 0-17 9.37-17 21.43s6 21.58 17 21.58c10.56 0 17.25-9.37 17.25-21.18 0-12.2-6.06-21.83-17.25-21.83zm0 35c-5.91 0-5.84-10.1-5.84-14.83s.35-12.3 5.91-12.3c2.4 0 4.08 1.06 4.93 3.75a35.65 35.65 0 0 1 1.13 10.26c0 5-.27 13.15-6.13 13.15zm31.76 7.19a1.44 1.44 0 0 0 1.47-1.39V56.33a17.28 17.28 0 0 1 1.2-7.33 4.92 4.92 0 0 1 4.36-3.09c5.22 0 4.72 6.18 4.72 10.42v21a1.41 1.41 0 0 0 1.35 1.23h7.56a1.43 1.43 0 0 0 1.44-1.22V53c0-3.74 0-9-2-12.05a9.89 9.89 0 0 0-8.8-4.56c-5.21 0-8.17 2.52-10.28 7.81h-.14v-5.93a1.44 1.44 0 0 0-1.34-1.08h-7a1.44 1.44 0 0 0-1.44 1.26v38.73a1.4 1.4 0 0 0 1.35 1.38h7.51m-87-7.09c-1.38-1.91-2.85-3.45-2.85-7V52.74c0-5 .35-9.56-3.32-13C126.8 37 122 36 118.34 36c-7.18 0-15.19 2.68-16.87 11.55a1.32 1.32 0 0 0 1.13 1.57l7.31.8a1.58 1.58 0 0 0 1.3-1.39c.64-3.06 3.19-4.53 6.07-4.53a5 5 0 0 1 4.23 2c1.06 1.55.92 3.67.92 5.47v1c-4.37.49-10.09.81-14.18 2.61a12.8 12.8 0 0 0-8 12.32c0 7.84 4.94 11.76 11.28 11.76 5.37 0 8.3-1.27 12.44-5.48a18.3 18.3 0 0 0 4.32 5 1.56 1.56 0 0 0 1.78-.17c1.5-1.35 4.24-3.73 5.78-5a1.42 1.42 0 0 0 .01-2.04zm-13.43-11.39c0 2.94.07 5.38-1.41 8a6.12 6.12 0 0 1-5.22 3.42c-2.9 0-4.59-2.2-4.59-5.46 0-6.42 5.76-7.59 11.22-7.59zM37 71.47c-1.38-1.91-2.85-3.45-2.85-7V52.74c0-5 .36-9.56-3.31-13C28 37 23.15 36 19.48 36 12.31 36 4.3 38.68 2.62 47.55a1.32 1.32 0 0 0 1.12 1.57l7.31.8a1.61 1.61 0 0 0 1.31-1.39C13 45.47 15.55 44 18.42 44a5 5 0 0 1 4.23 2c1.06 1.55.92 3.67.92 5.47v1c-4.37.49-10.08.81-14.18 2.61a12.8 12.8 0 0 0-8 12.32c0 7.84 4.94 11.76 11.29 11.76 5.36 0 8.29-1.27 12.43-5.48a18.47 18.47 0 0 0 4.32 5 1.56 1.56 0 0 0 1.78-.17c1.5-1.35 4.24-3.73 5.78-5a1.41 1.41 0 0 0 .01-2.04zM23.57 60.08c0 2.94.07 5.38-1.41 8a6.12 6.12 0 0 1-5.22 3.42c-2.89 0-4.59-2.2-4.59-5.46 0-6.42 5.77-7.59 11.22-7.59z" fill="#6b7c93"/></svg>