<svg xmlns="http://www.w3.org/2000/svg" width="172" height="120" viewBox="0 0 172 120"><defs><mask id="a" x=".95" y="35.36" width="170.05" height="49.29" maskUnits="userSpaceOnUse"><path fill="#fff" d="M85.98 35.35H171v49.29H.95V35.35h85.03z"/></mask></defs><path d="M157.6 74.81a8.52 8.52 0 0 1-5 1.86 14 14 0 0 1-7.24-1.21 8.11 8.11 0 0 1-3.94-4.52c-.31-.73-.39-1.52-.63-2.26-.25-.52-.92-.34-1.39-.41-2.46 0-4.93-.08-7.4-.07a26.86 26.86 0 0 0 1-11.88 15 15 0 0 0 6.81 4.57c4.27 1.62 8.87 2 13.23 3.29a14.11 14.11 0 0 1 4.71 2.24 4.7 4.7 0 0 1 1.81 2.93 6.19 6.19 0 0 1-2 5.46m-37.35-5.87a12.59 12.59 0 0 1-5.39 5.25 14.13 14.13 0 0 1-8.5 1.19 12.46 12.46 0 0 1-6.45-3.08 13.2 13.2 0 0 1-3.78-6.06 21.08 21.08 0 0 1-.76-8.79 15.36 15.36 0 0 1 3.86-8.83 12.73 12.73 0 0 1 7.87-3.9 13.85 13.85 0 0 1 7.43 1.16 12.89 12.89 0 0 1 5.79 5.57 17.9 17.9 0 0 1 2 8 19 19 0 0 1-2 9.5m-36-8.34a21.43 21.43 0 0 0-7.76-4.22c-3-1-6.12-1.41-9.15-2.22a18.3 18.3 0 0 1-4.65-1.77 5.37 5.37 0 0 1-2.43-2.78 4.88 4.88 0 0 1 .53-4.27A5.7 5.7 0 0 1 64 43.2a13.11 13.11 0 0 1 5.18-.3A8.29 8.29 0 0 1 74 45.1a7.77 7.77 0 0 1 2.16 4.14c0 .41.31.86.77.85 3.09 0 6.18.07 9.27.08a25.49 25.49 0 0 0-1.95 10.43m-7.82 12.72A6.28 6.28 0 0 1 73.29 76a11.78 11.78 0 0 1-5 .73 10.87 10.87 0 0 1-7.1-2.48 9 9 0 0 1-2.67-5.14c0-.38-.29-.79-.71-.77-3-.1-5.91-.06-8.86-.15V52.95a11.6 11.6 0 0 0 1.32 2.86 12.14 12.14 0 0 0 4.57 3.93c3.34 1.77 7.08 2.53 10.76 3.27a33.4 33.4 0 0 1 8.21 2.41 5.93 5.93 0 0 1 3.3 3.58 6.38 6.38 0 0 1-.68 4.32m-40-4a11.73 11.73 0 0 1-5.89 5.2 13.87 13.87 0 0 1-10.08.23A13 13 0 0 1 13.8 69a18.15 18.15 0 0 1-2.16-10.55 16.32 16.32 0 0 1 4.27-10 12.32 12.32 0 0 1 7-3.66 14.89 14.89 0 0 1 8.75 1.23 11.44 11.44 0 0 1 5.3 5.49 19.66 19.66 0 0 1 1.62 8 19.2 19.2 0 0 1-2.07 9.72m130.74-8.18a20.24 20.24 0 0 0-8-4.64c-3.95-1.37-8.19-1.69-12.12-3.15a8.85 8.85 0 0 1-3.49-2.16 4.88 4.88 0 0 1-.77-5.17 5 5 0 0 1 2.46-2.38 11.16 11.16 0 0 1 5.6-.79 8.71 8.71 0 0 1 5.31 2.1 7.85 7.85 0 0 1 2.34 4.32c.05.43.35.88.83.84 3.08 0 6.16.08 9.24.07a.64.64 0 0 0 .73-.77 16.36 16.36 0 0 0-2.62-6.91 15.18 15.18 0 0 0-7-5.48 25.48 25.48 0 0 0-8.14-1.64h-3.19a27.6 27.6 0 0 0-10 2.09 12.56 12.56 0 0 0-5.67 4.79 13.3 13.3 0 0 0-1.82 6.92 25 25 0 0 0-7.11-8.66 24.69 24.69 0 0 0-13.89-5.14h-2.61a23.91 23.91 0 0 0-9.88 2.77 25.8 25.8 0 0 0-10.63 10.66 17.19 17.19 0 0 0-2-5.42 14.42 14.42 0 0 0-5.62-5.39 23.4 23.4 0 0 0-10-2.55h-3.31a31.61 31.61 0 0 0-7.41 1.16 14.63 14.63 0 0 0-7.35 4.54 12.05 12.05 0 0 0-2.21 4.39v-7.82a1 1 0 0 0-.25-.82 1.08 1.08 0 0 0-.82-.22H39.5a.77.77 0 0 0-.77.76v2.25a.45.45 0 0 1-.21.45 4.54 4.54 0 0 1-.79-.49 22.51 22.51 0 0 0-11.44-4.21h-2.2a23.85 23.85 0 0 0-6.58 1.24 24.94 24.94 0 0 0-9.71 6.29 23.15 23.15 0 0 0-6.33 11.76 29.77 29.77 0 0 0-.52 4v2.74A24.81 24.81 0 0 0 3 70.2 25.62 25.62 0 0 0 12.32 81a23.29 23.29 0 0 0 13 3.69A20.45 20.45 0 0 0 38 80.15c.2-.13.56-.5.74-.15.09.87 0 1.76 0 2.63a.77.77 0 0 0 .75.76h8.68a.79.79 0 0 0 .76-.85v-7.7a15.66 15.66 0 0 0 3.43 4.9 17.84 17.84 0 0 0 9.09 4.35 38.45 38.45 0 0 0 8.44.53 31.66 31.66 0 0 0 8.79-1.56 17.24 17.24 0 0 0 6.15-3.52 11.71 11.71 0 0 0 3.43-5.83 28.1 28.1 0 0 0 2.47 3.09 24 24 0 0 0 12.36 7.2 24.94 24.94 0 0 0 16.17-1.61 25.41 25.41 0 0 0 11.1-10.47 16.35 16.35 0 0 0 3.87 7.31 15.68 15.68 0 0 0 6 3.87 31.47 31.47 0 0 0 12.23 1.53 29.93 29.93 0 0 0 9.94-2 14.79 14.79 0 0 0 6.29-4.63 12.06 12.06 0 0 0 2.31-6.41v-2.17a13.07 13.07 0 0 0-3.79-8.3" fill="#6b7c93" mask="url(#a)"/></svg>