<svg xmlns="http://www.w3.org/2000/svg" width="316" height="120" viewBox="0 0 316 120"><path d="M115.63 75.74h7.19l-1.22-5.58V37h-6.87v15.11a10.77 10.77 0 0 0-8.28-3.79c-6.87 0-12.2 5.72-12.2 14s5.33 14 12.2 14a10.67 10.67 0 0 0 8.41-4l.77 3.4zm135.88-20a6.44 6.44 0 0 1 3.86 1.26l3.27-7.32a9.35 9.35 0 0 0-5-1.35 8.31 8.31 0 0 0-7.32 4l-.7-3.4h-7.07l1.16 5.26v21.62h6.87V58.66a5.25 5.25 0 0 1 4.94-2.89zm20.1 13.36c-4 0-6.93-2.63-6.93-6.74s2.95-6.75 6.93-6.75 6.94 2.57 6.94 6.75-2.89 6.74-6.94 6.74zm-170.68-6.78c0-4.17 2.95-6.74 6.93-6.74s6.94 2.57 6.94 6.74-2.89 6.75-6.94 6.75a6.49 6.49 0 0 1-6.93-6.75zm201.19 6.81c-4 0-6.94-2.63-6.94-6.74s2.95-6.75 6.94-6.75 6.93 2.57 6.93 6.75a6.59 6.59 0 0 1-6.93 6.74zM139.52 55.2c3.53 0 5.84 1.67 6.61 4.75h-13.22c.7-3.15 3.08-4.75 6.61-4.75zm82.13 0c3.53 0 5.85 1.67 6.62 4.75H215c.83-3.15 3.15-4.75 6.61-4.75zm-33.52 20.54h11.05l7.19-26.9h-7.51l-5.21 21.83-5.26-21.77H181l7.13 26.84zm-17.66 0h6.87v-26.9h-6.87zm-29.92.52a20.06 20.06 0 0 0 10.72-3.08l-2.63-5.91a16.76 16.76 0 0 1-8 2c-3.59 0-6.1-1.41-7.25-4h19.39a16.06 16.06 0 0 0 .32-3.15c0-8.35-5.78-13.87-13.42-13.87s-13.42 5.65-13.42 14c-.07 8.54 5.58 14 14.32 14zm175.11-13.94c0-8.34-5.77-14-13.54-14s-13.55 5.72-13.55 14 5.78 14 13.55 14 13.54-5.65 13.54-14zm-93 14a19.49 19.49 0 0 0 10.72-3.08l-2.63-5.91a16.77 16.77 0 0 1-8 2.06c-3.6 0-6.1-1.42-7.26-4h19.4a16 16 0 0 0 .32-3.14c0-8.35-5.78-13.88-13.42-13.88S208.3 54 208.3 62.32c0 8.61 5.58 14 14.32 14zm49 0c7.84 0 13.55-5.71 13.55-14s-5.78-14-13.55-14-13.55 5.72-13.55 14 5.72 14 13.55 14zm-114.17-.58h6.87V37h-6.87v38.74zm16.5-30.56a4.37 4.37 0 1 0-4.37-4.37 4.32 4.32 0 0 0 4.37 4.37zM55.85 12.49l-3.92 37.25-6.68-31.4-21.06 4.43 6.61 31.4L.49 60.59l5.4 25L59.25 97l12.2-27.29 5.78-55-21.38-2.22zM39 66.56c-1.09 1-2.51.9-4.11.39s-2.18-2.31-1.67-4.63c.45-1.67 2.44-1.92 3.53-1.92a2.56 2.56 0 0 1 1.16.25c.7.32 1.92 1 2.18 2.06A3.71 3.71 0 0 1 39 66.56zm15.47 1.67c-.83 1.41-2.89 1.61-5 .58-1.47-.71-1.47-2.38-1.26-3.47a3 3 0 0 1 .7-1.6 3.36 3.36 0 0 1 2.25-1.48 3.9 3.9 0 0 1 3.66 1.93c.77 1.28.39 2.69-.39 4z" fill="#6b7c93"/></svg>