<svg xmlns="http://www.w3.org/2000/svg" width="264" height="120" viewBox="0 0 264 120"><path d="M200.15 40.4c-11.67 0-19.76 8.39-19.76 20.37 0 11.06 8 20.1 20.9 20.1A23.67 23.67 0 0 0 216.93 75l-4.05-6.71s-4.64 4.34-10.9 4.34c-5.87 0-10.91-3.32-11.67-10.19h26.85s.23-2.43.23-3.58c0-10.3-6.11-18.46-17.24-18.46zm-9.54 15.33c1.07-4.88 4.58-7.85 9.54-7.85 4 0 7.17 3.2 7.32 7.85zM254 41.32c-3.05 0-4.27 1.83-4.27 3.58v1h-.16s-3-5.49-12-5.49c-11.21 0-17.24 8.7-17.24 19.37s6.33 19.69 17.47 19.69c5.18 0 8.54-1.76 10.83-5h.16s-.08 1.14-.08 2.06v1.82c0 7-5.12 9.54-11 9.54A25.1 25.1 0 0 1 227 85.26l-3 7.62a30.94 30.94 0 0 0 13.81 3.36c10.14 0 20.52-5 20.52-18.38V51.08a1.49 1.49 0 0 1 1.67-1.53h3v-8.23zm-14.12 30c-6.25 0-9.68-5-9.68-11.83 0-6.56 3.21-10.83 9.08-10.83 5.26 0 9.69 2.37 9.69 11.21s-4.43 11.43-9.09 11.43zM27 40.4c-5.47 0-9.9 2.34-12.46 6.65v-1.77c0-2.75-1.75-4.35-5.11-4.35H.47v8.17h3.05a1.52 1.52 0 0 1 1.68 1.67v29.07h9.72V58.68c0-6.31 3.14-10.11 9.27-10.11 5.47 0 7.61 3.24 7.61 8.81v22.46h9.71v-23.2C41.51 46.06 35.5 40.4 27 40.4zM175.77 70V56.46c0-9.93-5.43-16.06-14.48-16.06-5.58 0-10.07 2-13.09 6.65-2-4.74-5.67-6.65-11.25-6.65-4.89 0-8.79 1.82-11.36 6.65v-1.8c0-2.74-1.68-4.32-5.11-4.32h-20v-10.6h-9.42v10.61h-5.25v7.77h5v17c0 13 10.75 14.65 16.17 14.65a17.76 17.76 0 0 0 3-.23v-8.46a9.13 9.13 0 0 1-1.76.15c-2.67 0-7.7-.91-7.7-7.32V48.71h14.12a1.52 1.52 0 0 1 1.68 1.67v29.46H126V58.41c0-6.5 2.66-9.84 8.15-9.84 5.3 0 7 3 7 8.35v22.92h9.72V58.41c0-6.5 2.65-9.84 8.14-9.84 5.3 0 7 3 7 8.35v17.73c0 3.65 1.53 5.19 5.19 5.19h9.18v-8.17h-3a1.52 1.52 0 0 1-1.61-1.67zM82 70V40.93h-9.74v21.16c0 6.31-3.15 10.11-9.27 10.11-5.48 0-7.62-3.25-7.62-8.81V40.93h-9.71v23.2c0 10.58 6 16.24 14.55 16.24 5.47 0 9.91-2.34 12.46-6.65v1.77c0 2.75 1.76 4.35 5.11 4.35h8.92v-8.17h-3A1.52 1.52 0 0 1 82 70z" fill="#6b7c93"/></svg>