<?xml version="1.0" encoding="utf-8"?>
<!-- Generator: Adobe Illustrator 19.0.0, SVG Export Plug-In . SVG Version: 6.00 Build 0)  -->
<svg version="1.1" xmlns="http://www.w3.org/2000/svg" xmlns:xlink="http://www.w3.org/1999/xlink" x="0px" y="0px"
	 viewBox="0 0 1254.2 859.5" style="enable-background:new 0 0 1254.2 859.5;" xml:space="preserve">
<style type="text/css">
	.st0{fill:#F0F9FC;}
	.st1{fill:#FFFFFF;}
	.st2{fill:#6A79A8;}
	.st3{fill:#BBDFF5;}
	.st4{fill:#FF9C81;}
</style>
<g id="Ñëîé_1_1_">
</g>
<g id="Ñëîé_2">
</g>
<g id="Ñëîé_3">
</g>
<g id="Ñëîé_4">
	<g id="XMLID_372_">
		<g id="XMLID_287_">
			<path id="XMLID_288_" class="st0" d="M332.7,817.9C307.2,813.8,0,776.8,22.6,504.2s51-354.7,170.4-384.7s409.7-172,637.5-37
				s473.6,256,376,471.6c-97.5,215.5-113.5,287.4-368,276.4S454.3,837.4,332.7,817.9z"/>
		</g>
		<g id="XMLID_289_">
			<g id="XMLID_290_">
				<path id="XMLID_366_" class="st1" d="M1062.3,358.2H833.2c-10.2,0-18.6-8.4-18.6-18.6v0c0-10.2,8.4-18.6,18.6-18.6h229.1
					c10.2,0,18.6,8.4,18.6,18.6v0C1081,349.8,1072.6,358.2,1062.3,358.2z"/>
			</g>
			<g id="XMLID_291_">
				<path id="XMLID_371_" class="st1" d="M1084.7,308.1h-94.4c-8.2,0-14.9-6.7-14.9-14.9l0,0c0-8.2,6.7-14.9,14.9-14.9h94.4
					c8.2,0,14.9,6.7,14.9,14.9l0,0C1099.6,301.4,1092.9,308.1,1084.7,308.1z"/>
			</g>
			<g id="XMLID_292_">
				<path id="XMLID_370_" class="st1" d="M1102.4,399.4H1008c-8.2,0-14.9-6.7-14.9-14.9l0,0c0-8.2,6.7-14.9,14.9-14.9h94.4
					c8.2,0,14.9,6.7,14.9,14.9l0,0C1117.2,392.8,1110.5,399.4,1102.4,399.4z"/>
			</g>
			<g id="XMLID_293_">
				<path id="XMLID_294_" class="st1" d="M1052.8,370.9c-4.6,0-8.3-2.8-8.3-6.4c0-3.5,3.7-6.4,8.3-6.4h-36.3c4.6,0,8.3,2.8,8.3,6.4
					c0,3.5-3.7,6.4-8.3,6.4H1052.8z"/>
			</g>
			<g id="XMLID_295_">
				<path id="XMLID_296_" class="st1" d="M1064.6,321.4c-4.8,0-8.7-3-8.7-6.6c0-3.7,3.9-6.6,8.7-6.6h-37.9c4.8,0,8.7,3,8.7,6.6
					c0,3.7-3.9,6.6-8.7,6.6H1064.6z"/>
			</g>
		</g>
		<g id="XMLID_297_">
			<g id="XMLID_298_">
				<path id="XMLID_365_" class="st1" d="M124.8,507h231.5c10.3,0,18.8,8.5,18.8,18.8v0c0,10.3-8.5,18.8-18.8,18.8H124.8
					c-10.3,0-18.8-8.5-18.8-18.8v0C106,515.5,114.5,507,124.8,507z"/>
			</g>
			<g id="XMLID_299_">
				<path id="XMLID_369_" class="st1" d="M102.2,557.7h95.4c8.3,0,15,6.8,15,15l0,0c0,8.3-6.8,15-15,15h-95.4c-8.3,0-15-6.8-15-15
					l0,0C87.2,564.4,94,557.7,102.2,557.7z"/>
			</g>
			<g id="XMLID_300_">
				<path id="XMLID_368_" class="st1" d="M84.4,465.4h95.4c8.3,0,15,6.8,15,15l0,0c0,8.3-6.8,15-15,15H84.4c-8.3,0-15-6.8-15-15l0,0
					C69.4,472.1,76.1,465.4,84.4,465.4z"/>
			</g>
			<g id="XMLID_301_">
				<path id="XMLID_367_" class="st1" d="M134.5,494.2c4.6,0,8.4,2.9,8.4,6.4s-3.8,6.4-8.4,6.4h36.7c-4.6,0-8.4-2.9-8.4-6.4
					s3.8-6.4,8.4-6.4H134.5z"/>
			</g>
			<g id="XMLID_302_">
				<path id="XMLID_32_" class="st1" d="M122.6,544.3c4.9,0,8.8,3,8.8,6.7s-3.9,6.7-8.8,6.7h38.3c-4.9,0-8.8-3-8.8-6.7
					s3.9-6.7,8.8-6.7H122.6z"/>
			</g>
		</g>
		<g>
			<g id="XMLID_304_">
				<path class="st1" d="M401.8,375.1l0,397.6c0,9.7,7.9,17.5,17.6,17.5l358.2,0c9.7,0,17.6-7.8,17.6-17.5l0-62l-0.3-34.2l0-377.6
					c0-9.7-7.9-17.5-17.6-17.5l-281.9,0L401.8,375.1L401.8,375.1z"/>
				<path id="XMLID_305_" class="st2" d="M419.4,792.2c-10.8,0-19.6-8.8-19.6-19.5l0-397.6c0,0,0,0,0,0l0-0.1c0-0.5,0.2-1,0.6-1.4
					l93.6-93.5c0.4-0.4,0.9-0.6,1.4-0.6l281.9,0c10.8,0,19.6,8.8,19.6,19.5l0,377.6l0.3,34.1l0,62c0,10.8-8.8,19.5-19.6,19.5
					L419.4,792.2z M403.8,375.8l0,396.9c0,8.6,7,15.5,15.6,15.5l358.2,0c8.6,0,15.6-7,15.6-15.5l0-62l-0.3-34.1l0-377.6
					c0-8.6-7-15.5-15.6-15.5l-281.1,0L403.8,375.8z M401.9,375.1L401.9,375.1L401.9,375.1L401.9,375.1z"/>
			</g>
			<g id="XMLID_309_">
				<path id="XMLID_310_" class="st2" d="M401.8,377.3c-0.8,0-1.5-0.5-1.8-1.2c-0.3-0.7-0.1-1.6,0.4-2.2l93.8-93.8
					c0.6-0.6,1.4-0.7,2.2-0.4c0.7,0.3,1.2,1,1.2,1.8l0,75.4c0,11.3-9.2,20.5-20.5,20.5L401.8,377.3z M493.6,286.3l-87,87l70.5,0
					c9.1,0,16.5-7.4,16.5-16.5L493.6,286.3z"/>
			</g>
			<g>
				<g id="XMLID_314_">
					<path id="XMLID_315_" class="st3" d="M677.1,563.3H512c-1.7,0-3-1.3-3-3c0-1.7,1.3-3,3-3h165.1c1.7,0,3,1.3,3,3
						C680.1,561.9,678.8,563.3,677.1,563.3z"/>
				</g>
				<g id="XMLID_316_">
					<path id="XMLID_317_" class="st2" d="M749.9,671.6H439.2c-1.1,0-2-0.9-2-2s0.9-2,2-2h310.7c1.1,0,2,0.9,2,2
						S751,671.6,749.9,671.6z"/>
				</g>
				<g id="XMLID_318_">
					<path id="XMLID_319_" class="st2" d="M749.9,627.9H439.2c-1.1,0-2-0.9-2-2c0-1.1,0.9-2,2-2h310.7c1.1,0,2,0.9,2,2
						C751.9,627,751,627.9,749.9,627.9z"/>
				</g>
				<g id="XMLID_320_">
					<path id="XMLID_321_" class="st2" d="M595.7,715.4H439.2c-1.1,0-2-0.9-2-2s0.9-2,2-2h156.5c1.1,0,2,0.9,2,2
						S596.8,715.4,595.7,715.4z"/>
				</g>
			</g>
			<g id="XMLID_313_">
				<path id="XMLID_322_" class="st2" d="M537.2,472.1c-0.5,0-1-0.2-1.4-0.6c-0.8-0.8-0.8-2,0-2.8c1-1,24-23.8,62.9-23.8
					c38.8,0,61.5,20.9,62.5,21.8c0.8,0.8,0.8,2,0.1,2.8c-0.8,0.8-2,0.8-2.8,0.1c-0.2-0.2-22.5-20.7-59.7-20.7
					c-37.2,0-59.8,22.4-60,22.7C538.2,471.9,537.7,472.1,537.2,472.1z"/>
			</g>
			<g id="XMLID_323_">
				<circle class="st2" cx="518.6" cy="419.5" r="9"/>
			</g>
			<g id="XMLID_324_">
				<circle class="st2" cx="675.9" cy="419.5" r="9"/>
			</g>
		</g>
		<g id="XMLID_375_">
			<g id="XMLID_325_">
				<path id="XMLID_364_" class="st1" d="M574.8,236.6l-263.6,31.5c-9.5,1.1-18-5.6-19.2-15.1l-14.8-123.6
					c-1.1-9.5,5.6-18,15.1-19.2L556,78.8c9.5-1.1,18,5.6,19.2,15.1l14.8,123.6C591.1,226.9,584.3,235.5,574.8,236.6z"/>
			</g>
			<g id="XMLID_326_">
				<path id="XMLID_363_" class="st4" d="M584.8,246.6l-263.6,31.5c-9.5,1.1-18-5.6-19.2-15.1l-14.8-123.6
					c-1.1-9.5,5.6-18,15.1-19.2L566,88.8c9.5-1.1,18,5.6,19.2,15.1l14.8,123.6C601.1,236.9,594.3,245.5,584.8,246.6z"/>
			</g>
			<g id="XMLID_327_">
				<path id="XMLID_328_" class="st2" d="M309.2,270.2c-9.6,0-17.9-7.2-19.1-17l-14.8-123.6c-0.6-5.1,0.8-10.1,4-14.2
					c3.2-4,7.7-6.6,12.8-7.2l263.6-31.5c10.5-1.3,20.1,6.3,21.4,16.8l14.8,123.6c0.6,5.1-0.8,10.1-4,14.2s-7.7,6.6-12.8,7.2
					l-263.6,31.5C310.7,270.2,309.9,270.2,309.2,270.2z M558,80.6c-0.6,0-1.2,0-1.8,0.1l-263.6,31.5c-4,0.5-7.7,2.5-10.2,5.7
					c-2.5,3.2-3.6,7.2-3.2,11.2L294,252.8c1,8.3,8.6,14.3,16.9,13.3l263.6-31.5l0.2,2l-0.2-2c4-0.5,7.7-2.5,10.2-5.7
					c2.5-3.2,3.6-7.2,3.2-11.2L573.2,94.1C572.3,86.3,565.7,80.6,558,80.6z"/>
			</g>
			<g id="XMLID_331_">
				<path id="XMLID_332_" class="st1" d="M363.1,219l-1.5-12.6l-33.9,4c-4.3,0.5-7.6-0.1-10-1.8c-2.4-1.7-3.8-4.2-4.2-7.5
					c-0.1-0.9,0-1.7,0.2-2.7c0.2-0.9,0.6-1.9,1.1-2.9c0.5-1,1.1-2.1,1.6-3c0.6-1,1.3-2.2,2.1-3.6l30.1-52.2c2-3.4,3.6-5.9,5-7.5
					c1.3-1.6,3.1-2.5,5.2-2.8c6.8-0.8,10.7,2.7,11.7,10.5l6.2,52.3l2.9-0.3c3.5-0.4,6.3-0.3,8.5,0.4c2.2,0.7,3.5,2.6,3.9,5.8
					c0.3,2.6-0.3,4.6-1.9,6c-1.6,1.4-4.1,2.3-7.5,2.7l-4.1,0.5L380,217c0.4,3.5,0,6.1-1.4,8c-1.3,1.9-3.3,3-5.8,3.3
					c-2.5,0.3-4.7-0.3-6.4-1.9C364.6,224.8,363.5,222.4,363.1,219z M330.7,194.8l29.1-3.5l-4.7-39.3L330.7,194.8z"/>
				<path id="XMLID_335_" class="st1" d="M467.7,165.9c0.9,7.4,1.2,13.8,0.9,19.2c-0.3,5.4-1.4,10.4-3.3,15.1
					c-2.4,5.7-5.9,10.3-10.4,13.7c-4.5,3.5-9.8,5.5-15.7,6.3c-6.8,0.8-13.2-0.4-19.1-3.6c-5.9-3.2-10.6-8.1-14.2-14.6
					c-1.8-3.6-3.4-7.6-4.6-12c-1.2-4.4-2.1-9.3-2.7-14.6c-0.8-6.8-1.2-13-1.1-18.5c0.1-5.5,0.6-10.4,1.7-14.5
					c1.9-6.8,5.2-12.2,9.8-16.2c4.7-4,10.5-6.4,17.5-7.3c4.6-0.6,8.9-0.3,12.9,0.8c4,1.1,7.5,2.9,10.8,5.4c3.2,2.6,6.1,5.9,8.5,9.9
					C463.1,142,466.1,152.3,467.7,165.9z M449.1,166.8c-1-8.2-2.3-14.9-3.9-20.1c-1.6-5.1-3.8-8.9-6.4-11.3
					c-2.7-2.4-6.1-3.4-10.2-2.9c-5.9,0.7-9.7,4.2-11.3,10.5c-1.6,6.3-1.7,15.6-0.2,28.1c1,8.5,2.3,15.3,4,20.6
					c1.6,5.3,3.8,9.2,6.5,11.7c2.7,2.5,6,3.5,10,3c4.1-0.5,7.2-2.3,9.2-5.5c2-3.2,3.1-7.5,3.5-13
					C450.5,182.6,450.1,175.5,449.1,166.8z"/>
				<path id="XMLID_338_" class="st1" d="M527.5,199.4l-1.5-12.6l-33.9,4c-4.3,0.5-7.6-0.1-10-1.8c-2.4-1.7-3.8-4.2-4.2-7.5
					c-0.1-0.9,0-1.7,0.2-2.7c0.2-0.9,0.6-1.9,1.1-2.9c0.5-1,1.1-2.1,1.6-3c0.6-1,1.3-2.2,2.1-3.6l30.1-52.2c2-3.4,3.6-5.9,5-7.5
					c1.3-1.6,3.1-2.5,5.2-2.8c6.8-0.8,10.7,2.7,11.7,10.5l6.2,52.3l2.9-0.3c3.5-0.4,6.3-0.3,8.5,0.4c2.2,0.7,3.5,2.6,3.9,5.8
					c0.3,2.6-0.3,4.6-1.9,6c-1.6,1.4-4.1,2.3-7.5,2.7l-4.1,0.5l1.5,12.6c0.4,3.5,0,6.1-1.4,8c-1.3,1.9-3.3,3-5.8,3.3
					c-2.5,0.3-4.7-0.3-6.4-1.9C529,205.2,527.9,202.8,527.5,199.4z M495.2,175.1l29.1-3.5l-4.7-39.3L495.2,175.1z"/>
			</g>
		</g>
		<g id="XMLID_303_">
			<path id="XMLID_341_" class="st2" d="M869.1,540.2c-0.1,0-0.2,0-0.2,0c-34.4-3.9-53-19.7-62.6-32.3
				c-10.1-13.3-13.3-27.2-13.3-30.7c0-1.1,0.9-2,2-2c0,0,0,0,0,0c1.1,0,2,0.9,2,2c0,1.8,2.3,14.9,12.5,28.3
				c9.1,12,26.9,27,59.8,30.8c1.1,0.1,1.9,1.1,1.8,2.2C870.9,539.4,870.1,540.2,869.1,540.2z"/>
		</g>
		<g id="XMLID_342_">
			<path id="XMLID_343_" class="st2" d="M401.8,481.3C401.8,481.3,401.7,481.3,401.8,481.3c-2.4-0.1-15.6-2.3-32.7-11.1
				c-15.1-7.7-37-22.6-56-49.7c-0.6-0.9-0.4-2.2,0.5-2.8c0.9-0.6,2.2-0.4,2.8,0.5c37.4,53.3,85,59.1,85.5,59.1c1.1,0,2,1,1.9,2.1
				C403.7,480.5,402.9,481.3,401.8,481.3z"/>
		</g>
		<g id="XMLID_344_">
			<path id="XMLID_345_" class="st2" d="M320.3,498.2c-1,0-1.9-0.7-2-1.8L287.1,230c-0.1-1.1,0.7-2.1,1.8-2.2
				c1.1-0.1,2.1,0.7,2.2,1.8L322.3,496c0.1,1.1-0.7,2.1-1.8,2.2C320.5,498.2,320.4,498.2,320.3,498.2z"/>
		</g>
		<g>
			<g id="XMLID_347_">
				<path id="XMLID_348_" class="st2" d="M582.1,834.2c-1.1,0-2-0.9-2-2v-41.9c0-1.1,0.9-2,2-2c1.1,0,2,0.9,2,2v41.9
					C584.1,833.3,583.3,834.2,582.1,834.2z"/>
			</g>
			<g id="XMLID_349_">
				<path id="XMLID_350_" class="st2" d="M614.8,834.2c-1.1,0-2-0.9-2-2v-41.9c0-1.1,0.9-2,2-2c1.1,0,2,0.9,2,2v41.9
					C616.8,833.3,615.9,834.2,614.8,834.2z"/>
			</g>
		</g>
	</g>
</g>
</svg>
